<svg width="814" height="90" viewBox="0 0 814 90" fill="none" xmlns="http://www.w3.org/2000/svg">
<path d="M62.4631 17.6538H17.3926V35.7116H58.765V50.4808H17.3926V72.346H64.5432V87.6345H0V2.59615H62.4631V17.6538ZM75.7553 2.59615H94.4192L128.338 61.9616V2.59615H144.921V87.6345H127.124L92.3391 27.2308V87.6345H75.7553V2.59615ZM176.993 17.3654V40.2114H197.159C201.165 40.2114 204.17 39.75 206.173 38.8268C209.717 37.2116 211.489 34.0193 211.489 29.2499C211.489 24.0961 209.775 20.6346 206.347 18.8653C204.42 17.8654 201.531 17.3654 197.679 17.3654H176.993ZM201.377 2.59615C207.348 2.71154 211.932 3.44232 215.129 4.78846C218.365 6.13461 221.1 8.11538 223.335 10.7308C225.184 12.8846 226.648 15.2692 227.726 17.8846C228.805 20.5 229.344 23.4808 229.344 26.827C229.344 30.8654 228.323 34.8461 226.282 38.7691C224.24 42.6537 220.869 45.4037 216.169 47.0192C220.099 48.596 222.872 50.846 224.49 53.7692C226.147 56.6538 226.975 61.0768 226.975 67.0384V72.7498C226.975 76.6344 227.129 79.2692 227.437 80.6538C227.9 82.8461 228.978 84.4615 230.673 85.5V87.6345H211.085C210.545 85.75 210.16 84.2306 209.929 83.0767C209.467 80.6922 209.216 78.2499 209.178 75.7499L209.062 67.8462C208.985 62.4229 207.984 58.8077 206.058 56.9999C204.17 55.1922 200.607 54.2883 195.368 54.2883H176.993V87.6345H159.6V2.59615H201.377ZM280.021 74.9421C287.073 74.9421 292.656 72.346 296.779 67.1536C300.94 61.9616 303.019 54.577 303.019 44.9998C303.019 35.4616 300.94 28.0961 296.779 22.9038C292.656 17.673 287.073 15.0577 280.021 15.0577C272.971 15.0577 267.348 17.6538 263.149 22.8461C258.95 28.0383 256.851 35.4229 256.851 44.9998C256.851 54.577 258.95 61.9616 263.149 67.1536C267.348 72.346 272.971 74.9421 280.021 74.9421ZM320.815 44.9998C320.815 60.269 316.52 71.9614 307.93 80.0767C301.496 86.6922 292.193 90 280.021 90C267.848 90 258.546 86.6922 252.113 80.0767C243.484 71.9614 239.169 60.269 239.169 44.9998C239.169 29.4231 243.484 17.7308 252.113 9.92307C258.546 3.3077 267.848 0 280.021 0C292.193 0 301.496 3.3077 307.93 9.92307C316.52 17.7308 320.815 29.4231 320.815 44.9998ZM344.973 61.3845C345.51 65.2691 346.57 68.173 348.149 70.0962C351.04 73.596 355.989 75.346 363 75.346C367.199 75.346 370.609 74.8846 373.229 73.9614C378.196 72.1921 380.681 68.9037 380.681 64.0961C380.681 61.2884 379.449 59.1154 376.983 57.5767C374.517 56.0767 370.647 54.7499 365.37 53.596L356.355 51.577C347.495 49.5769 341.371 47.4037 337.98 45.0576C332.24 41.1346 329.371 35 329.371 26.6538C329.371 19.0384 332.144 12.7115 337.692 7.67308C343.238 2.6346 351.384 0.115385 362.134 0.115385C371.109 0.115385 378.756 2.49999 385.073 7.26923C391.429 12 394.761 18.8846 395.07 27.9231H377.965C377.658 22.8077 375.423 19.1731 371.263 17.0192C368.49 15.5961 365.042 14.8846 360.919 14.8846C356.336 14.8846 352.675 15.8077 349.94 17.6538C347.205 19.5 345.839 22.0769 345.839 25.3847C345.839 28.4231 347.186 30.6922 349.884 32.1922C351.616 33.1922 355.314 34.3654 360.978 35.7116L375.655 39.2307C382.088 40.7691 386.943 42.8269 390.216 45.4037C395.302 49.4037 397.843 55.1922 397.843 62.7691C397.843 70.5385 394.858 76.9999 388.887 82.1538C382.954 87.269 374.557 89.8268 363.694 89.8268C352.6 89.8268 343.875 87.3077 337.517 82.2693C331.162 77.1921 327.983 70.2307 327.983 61.3845H344.973ZM404.952 45.8076C404.952 30.9615 408.94 19.5192 416.915 11.4807C423.848 4.48075 432.67 0.980772 443.377 0.980772C457.709 0.980772 468.185 5.67306 474.812 15.0577C478.472 20.3269 480.436 25.6154 480.705 30.9231H462.908C461.754 26.846 460.27 23.7692 458.46 21.6923C455.224 18 450.429 16.1538 444.071 16.1538C437.6 16.1538 432.495 18.7692 428.759 24C425.023 29.1922 423.154 36.5577 423.154 46.096C423.154 55.6345 425.118 62.7884 429.047 67.5575C433.017 72.2885 438.043 74.6537 444.13 74.6537C450.369 74.6537 455.127 72.6153 458.4 68.5385C460.213 66.3462 461.714 63.0577 462.908 58.6729H480.532C478.991 67.9423 475.043 75.4808 468.688 81.2883C462.37 87.0961 454.261 90 444.361 90C432.11 90 422.479 86.0768 415.47 78.2305C408.459 70.3459 404.952 59.5384 404.952 45.8076ZM515.087 55.4999H536.7L526.066 22.0384L515.087 55.4999ZM516.187 2.59615H536.294L566.457 87.6345H547.157L541.668 70.1537H510.292L504.399 87.6345H485.793L516.187 2.59615ZM592.231 17.3654V72.8653H608.642C617.039 72.8653 622.894 68.7307 626.208 60.4616C628.018 55.9231 628.924 50.5192 628.924 44.2501C628.924 35.5961 627.555 28.9615 624.82 24.3461C622.125 19.6923 616.73 17.3654 608.642 17.3654H592.231ZM611.647 2.59615C616.923 2.67308 621.315 3.28845 624.82 4.4423C630.791 6.40384 635.626 9.99998 639.324 15.2308C642.291 19.4615 644.313 24.0384 645.392 28.9615C646.47 33.8845 647.008 38.5768 647.008 43.0385C647.008 54.346 644.736 63.9229 640.19 71.7691C634.026 82.3461 624.513 87.6345 611.647 87.6345H574.953V2.59615H611.647ZM695.78 74.9421C702.829 74.9421 708.415 72.346 712.536 67.1536C716.697 61.9616 718.778 54.577 718.778 44.9998C718.778 35.4616 716.697 28.0961 712.536 22.9038C708.415 17.673 702.829 15.0577 695.78 15.0577C688.731 15.0577 683.107 17.6538 678.906 22.8461C674.708 28.0383 672.61 35.4229 672.61 44.9998C672.61 54.577 674.708 61.9616 678.906 67.1536C683.107 72.346 688.731 74.9421 695.78 74.9421ZM736.575 44.9998C736.575 60.269 732.28 71.9614 723.689 80.0767C717.256 86.6922 707.953 90 695.78 90C683.607 90 674.304 86.6922 667.871 80.0767C659.243 71.9614 654.926 60.269 654.926 44.9998C654.926 29.4231 659.243 17.7308 667.871 9.92307C674.304 3.3077 683.607 0 695.78 0C707.953 0 717.256 3.3077 723.689 9.92307C732.28 17.7308 736.575 29.4231 736.575 44.9998ZM760.729 61.3845C761.27 65.2691 762.327 68.173 763.908 70.0962C766.797 73.596 771.746 75.346 778.757 75.346C782.956 75.346 786.366 74.8846 788.985 73.9614C793.956 72.1921 796.438 68.9037 796.438 64.0961C796.438 61.2884 795.206 59.1154 792.74 57.5767C790.276 56.0767 786.404 54.7499 781.127 53.596L772.114 51.577C763.252 49.5769 757.128 47.4037 753.737 45.0576C747.997 41.1346 745.127 35 745.127 26.6538C745.127 19.0384 747.903 12.7115 753.449 7.67308C758.997 2.6346 767.144 0.115385 777.891 0.115385C786.866 0.115385 794.512 2.49999 800.83 7.26923C807.188 12 810.518 18.8846 810.827 27.9231H793.724C793.415 22.8077 791.18 19.1731 787.019 17.0192C784.247 15.5961 780.799 14.8846 776.678 14.8846C772.093 14.8846 768.435 15.8077 765.7 17.6538C762.964 19.5 761.595 22.0769 761.595 25.3847C761.595 28.4231 762.946 30.6922 765.641 32.1922C767.375 33.1922 771.073 34.3654 776.735 35.7116L791.411 39.2307C797.845 40.7691 802.699 42.8269 805.973 45.4037C811.058 49.4037 813.6 55.1922 813.6 62.7691C813.6 70.5385 810.615 76.9999 804.644 82.1538C798.711 87.269 790.314 89.8268 779.451 89.8268C768.357 89.8268 759.632 87.3077 753.277 82.2693C746.919 77.1921 743.742 70.2307 743.742 61.3845H760.729Z" fill="black"/>
</svg>
