<?xml version="1.0" encoding="UTF-8"?>
<svg id="Capa_2" data-name="Capa 2" xmlns="http://www.w3.org/2000/svg" viewBox="0 0 2648.08 534.46">
  <defs>
    <style>
      .cls-1 {
        fill: #2b3e6c;
      }
    </style>
  </defs>
  <g id="Capa_1-2" data-name="Capa 1">
    <g>
      <g>
        <g>
          <path class="cls-1" d="M716.14,6.64h61.56v207.9h89.21l-5.53,55.29h-145.24V6.64Z"/>
          <path class="cls-1" d="M1023.56,215.28h-67.09l-12.16,54.56h-60.09L954.26,6.64h75.2l68.2,263.2h-62.3l-11.8-54.56ZM990.39,57.51l-23.59,108.74h46.82l-23.22-108.74Z"/>
          <path class="cls-1" d="M1185.02,6.64h79.62c36.61,0,64.38,11,83.31,32.99,18.92,22,28.38,54.25,28.38,96.76s-9.77,75.08-29.31,98.42c-19.54,23.35-47.25,35.02-83.13,35.02h-78.89V6.64ZM1312.56,137.5c0-50.13-14.75-75.2-44.23-75.2h-22.49v151.87h21.38c30.23,0,45.34-25.56,45.34-76.67Z"/>
          <path class="cls-1" d="M1413.56,6.64h151.5v52.71h-90.31v50.5h84.78v52.71h-84.78v54.56h96.58l-5.53,52.71h-152.24V6.64Z"/>
          <path class="cls-1" d="M1603.77,6.64h82.57c29.24,0,51.79,7.19,67.64,21.56,15.85,14.38,23.78,34.71,23.78,61.01,0,29.99-12.04,52.96-36.13,68.93l46.08,111.69h-64.88l-35.76-94.37c-2.95.25-5.66.37-8.11.37h-16.96v94h-58.24V6.64ZM1719.15,90.68c0-23.1-11.92-34.65-35.76-34.65h-21.38v70.04h20.64c24.33,0,36.49-11.8,36.49-35.39Z"/>
          <path class="cls-1" d="M1816.09,6.64h151.5v52.71h-90.31v50.5h84.78v52.71h-84.78v54.56h96.58l-5.53,52.71h-152.24V6.64Z"/>
          <path class="cls-1" d="M1996.72,139.71c0-45.46,8.78-80.11,26.36-103.95,17.57-23.83,42.7-35.76,75.38-35.76,26.05,0,46.87,8.42,62.48,25.25,15.6,16.84,25.37,41.6,29.31,74.28l-61.19,7c-2.21-18.18-5.71-31.21-10.51-39.07-4.79-7.86-11.86-11.8-21.2-11.8-12.53,0-21.69,6.51-27.46,19.54-5.78,13.03-8.66,33.91-8.66,62.67s3.01,49.46,9.03,62.85c6.02,13.4,15.42,20.09,28.2,20.09,10.07,0,17.82-4.18,23.22-12.53,5.4-8.35,8.72-21.25,9.95-38.71h60.46c-1.72,34.16-10.87,60.52-27.46,79.07-16.59,18.56-39.39,27.83-68.38,27.83-32.44,0-57.14-11.61-74.09-34.84-16.96-23.22-25.44-57.19-25.44-101.93Z"/>
          <path class="cls-1" d="M2347.65,162.2h-63.77v107.64h-61.56V6.64h61.56v98.79h63.77V6.64h61.93v263.2h-61.93v-107.64Z"/>
          <path class="cls-1" d="M2573.98,215.28h-67.09l-12.16,54.56h-60.09L2504.68,6.64h75.2l68.2,263.2h-62.3l-11.8-54.56ZM2540.81,57.51l-23.59,108.74h46.82l-23.22-108.74Z"/>
        </g>
        <g>
          <path class="cls-1" d="M838.31,342.93c11.99,5.16,22.43,12.18,31.34,21.08,8.9,8.9,15.92,19.35,21.08,31.34,5.15,11.99,7.73,24.73,7.73,38.22s-2.58,26.23-7.73,38.22c-5.16,11.99-12.18,22.44-21.08,31.34-8.9,8.9-19.35,15.93-31.34,21.08-11.99,5.16-24.73,7.73-38.22,7.73h-16.3l-18.55-34.29h34.85c8.05,0,15.69-1.59,22.9-4.78,7.21-3.18,13.49-7.63,18.83-13.35,5.34-5.71,9.56-12.51,12.65-20.38,3.09-7.87,4.64-16.39,4.64-25.57s-1.54-17.42-4.64-25.29c-3.09-7.87-7.31-14.66-12.65-20.38-5.34-5.71-11.62-10.21-18.83-13.49-7.21-3.28-14.85-4.92-22.9-4.92h-44.97v162.44h-39.34v-196.73h84.31c13.49,0,26.23,2.58,38.22,7.73Z"/>
          <path class="cls-1" d="M1163.47,335.2v196.73h-41.03v-196.73h41.03Z"/>
          <path class="cls-1" d="M1503.8,335.19h-42.44l-80.65,196.73h42.16l14.9-34.84h68.88l-15.22-35.13h-39.61l19.26-46.96,10-24.38,31.06,71.34h0l15.56,35.13h0l14.62,34.84h42.15l-80.65-196.73Z"/>
          <path class="cls-1" d="M2222.42,335.2v196.73h-41.03v-196.73h41.03Z"/>
        </g>
      </g>
      <path class="cls-1" d="M2544.48,332.67c-54.17,0-98.08,45.17-98.08,100.89s43.91,100.89,98.08,100.89,98.08-45.17,98.08-100.89-43.91-100.89-98.08-100.89ZM2544.48,497.92c-31.82,0-57.61-28.82-57.61-64.36s25.79-64.36,57.61-64.36,57.61,28.82,57.61,64.36-25.79,64.36-57.61,64.36Z"/>
      <path class="cls-1" d="M1961.61,531.92l-47.21-58.45-.05.03-3.14-3.85c1.85-.69,3.74-1.47,5.72-2.38,11.81-5.43,21.4-13.67,28.8-24.72,7.4-11.05,11.11-23.61,11.11-37.66,0-9.56-1.84-18.59-5.49-27.11-3.65-8.53-8.61-15.93-14.89-22.21-6.29-6.27-13.59-11.23-21.93-14.89-8.33-3.65-17.28-5.49-26.83-5.49h-89.1v196.73h39.64v-162.15h49.46c4.12,0,8,.89,11.66,2.67,3.65,1.78,6.84,4.17,9.56,7.17,2.71,2.99,4.86,6.42,6.46,10.25,1.59,3.85,2.39,7.83,2.39,11.95,0,9.92-2.9,17.84-8.71,23.74-5.81,5.91-12.93,8.86-21.35,8.86h-26.77l-14.11,39.34h3.66c5.16.03,9.8.05,13.96.08l47.14,58.09h0s0,0,0,0h50.01Z"/>
    </g>
    <path class="cls-1" d="M539.23,260.24s8.58-49.04-35.48-124.16h-27.62c-4.42-7.58-9.52-15.16-15.3-22.74-.02-.02-.04-.05-.06-.07C412.4,44.75,332.59,0,242.33,0H40.24v131.99h33.44v107.93h-38.13v20.32H14.62v20.33h25.62v111.52h41.3v20.32h-41.3v30.5H0v20.33h40.24v71.2h218.97c46.32,0,94.31-17.72,143.94-53.2,3.35-2.92,6.34-5.48,9-7.67.39-.32.77-.64,1.13-.94,3.65-3.04,7.2-6.16,10.67-9.39h-31.1v-20.33h50.84c6.71-7.67,12.97-15.73,18.78-24.14,1.44-2.11,2.87-4.22,4.25-6.36h40.53v-20.32h-28.59c1.66-3.1,3.24-6.25,4.76-9.42,5-10.42,9.34-21.21,12.97-32.31,7.24-22.13,11.66-45.53,12.85-69.78h-25.27v-20.33h55.28ZM36.49,260.27v-.02h.02l-.02.02ZM397.86,281.95c-.04.45-.07.89-.13,1.34-1.73,17.8-6.33,34.74-13.33,50.38-4.73,10.57-10.55,20.53-17.32,29.76-4.93,6.74-10.38,13.07-16.26,18.95-3.4,3.4-6.94,6.64-10.62,9.72h19.93v20.32h-50.66c-15.69,8-32.86,13.53-50.98,16.07-7.46,1.05-15.07,1.59-22.83,1.59h-52.69v-149.5h-24.4v-20.33h56.85v-124.16h-32.45v-31.7h22.32c2.7,0,5.38.07,8.04.19,6,.3,11.93.91,17.74,1.84.63.1,1.27.2,1.9.32,25.46,4.35,48.89,14.62,68.85,29.34h0s30.37.01,30.37.01c.68.5,1.37,1.02,2.03,1.52,32.18,24.52,54.97,60.74,61.98,102.32h-19.16v20.32h-20.93v20.33h41.83c-.04.46-.07.91-.12,1.37Z"/>
  </g>
</svg>