<svg width="85" height="16" viewBox="0 0 85 16" fill="none" xmlns="http://www.w3.org/2000/svg">
<path d="M12.6851 15.441L3.40091 3.20548H3.32272V11.5514C3.32272 12.203 3.34227 12.7177 3.38136 13.0955C3.43348 13.4734 3.5247 13.7666 3.655 13.9751C3.79833 14.1836 3.99379 14.3204 4.24137 14.3856C4.50197 14.4507 4.84076 14.4898 5.25774 14.5028V15.2456H-2.61625e-05V14.5028C0.456038 14.4898 0.820889 14.4507 1.09453 14.3856C1.3812 14.3074 1.60271 14.1706 1.75908 13.9751C1.91544 13.7796 2.01968 13.506 2.07181 13.1542C2.12393 12.7893 2.14999 12.3007 2.14999 11.6883V3.75275C2.14999 3.20548 2.12393 2.75593 2.07181 2.40411C2.03271 2.03926 1.9415 1.75259 1.79817 1.5441C1.66786 1.33562 1.47241 1.19228 1.2118 1.1141C0.951193 1.02289 0.612402 0.96425 0.19543 0.938189V0.195456H4.06546L12.6069 11.5905H12.6851V3.88957C12.6851 3.25108 12.659 2.7429 12.6069 2.36502C12.5678 1.97411 12.4766 1.67441 12.3332 1.46592C12.2029 1.25743 12.0075 1.12061 11.7469 1.05546C11.4993 0.990311 11.167 0.95122 10.75 0.938189V0.195456H16.0078V0.938189C15.5517 0.95122 15.1804 0.996826 14.8937 1.07501C14.6201 1.14016 14.4051 1.27046 14.2487 1.46592C14.0923 1.66138 13.9881 1.94153 13.936 2.30638C13.8839 2.67123 13.8578 3.15336 13.8578 3.75275V15.441H12.6851ZM30.8692 9.18643C30.8692 10.2158 30.7649 11.1214 30.5564 11.9033C30.361 12.6851 30.0352 13.3366 29.5792 13.8578C29.1361 14.379 28.5563 14.7765 27.8396 15.0501C27.1229 15.3107 26.2564 15.441 25.24 15.441C24.2758 15.441 23.4353 15.3498 22.7187 15.1674C22.002 14.9719 21.4026 14.6592 20.9205 14.2292C20.4383 13.7862 20.08 13.2128 19.8455 12.5092C19.6109 11.8055 19.4936 10.939 19.4936 9.90961V4.74958C19.4936 3.78533 19.4676 3.0426 19.4155 2.52138C19.3764 2.00017 19.2461 1.61577 19.0245 1.36819C18.8682 1.1988 18.6532 1.08804 18.3795 1.03592C18.1189 0.970765 17.7671 0.938189 17.3241 0.938189V0.195456H23.9891V0.938189C23.5461 0.938189 23.1878 0.964249 22.9141 1.01637C22.6405 1.06849 22.4255 1.1988 22.2691 1.40728C22.0867 1.64183 21.9694 2.01971 21.9173 2.54093C21.8652 3.04911 21.8391 3.78533 21.8391 4.74958V10.066C21.8391 10.7305 21.9043 11.3234 22.0346 11.8446C22.1779 12.3528 22.4059 12.7893 22.7187 13.1542C23.0314 13.506 23.4353 13.7731 23.9305 13.9556C24.4387 14.138 25.0576 14.2292 25.7873 14.2292C27.0904 14.2292 28.0676 13.8709 28.7192 13.1542C29.3707 12.4245 29.6964 11.356 29.6964 9.9487V5.23822C29.6964 4.07851 29.6508 3.19896 29.5596 2.59956C29.4684 2.00017 29.299 1.57668 29.0514 1.3291C28.869 1.15971 28.641 1.05546 28.3673 1.01637C28.0937 0.964249 27.7549 0.938189 27.351 0.938189V0.195456H33.0192V0.938189C32.6022 0.938189 32.2569 0.970765 31.9833 1.03592C31.7227 1.10107 31.5142 1.2444 31.3578 1.46592C31.1624 1.73956 31.0321 2.16956 30.9669 2.75593C30.9018 3.32927 30.8692 4.1567 30.8692 5.23822V9.18643ZM46.8685 0.195456H47.4157L47.5916 4.69094H46.8685C46.5818 3.54427 46.028 2.64517 45.2071 1.99365C44.3862 1.34213 43.3959 1.01637 42.2362 1.01637C41.4413 1.01637 40.7311 1.17274 40.1057 1.48546C39.4802 1.7982 38.9525 2.24774 38.5225 2.83411C38.0925 3.42048 37.7602 4.13715 37.5257 4.98413C37.3042 5.8311 37.1934 6.78884 37.1934 7.85733C37.1934 9.95522 37.6299 11.571 38.5029 12.7046C39.376 13.8252 40.6399 14.3856 42.2948 14.3856C44.8097 14.3856 46.4254 13.0499 47.1421 10.3787H47.9435V15.2456H47.2594L46.8098 13.7015C45.4416 14.8612 43.7868 15.441 41.8452 15.441C40.7377 15.441 39.7343 15.2651 38.8352 14.9133C37.9492 14.5615 37.1869 14.0663 36.5484 13.4278C35.9229 12.7763 35.4343 11.988 35.0825 11.0628C34.7437 10.1376 34.5743 9.10824 34.5743 7.9746C34.5743 6.78884 34.7567 5.70731 35.1216 4.73003C35.4864 3.75275 35.9946 2.91229 36.6461 2.20865C37.3107 1.50501 38.099 0.96425 39.0111 0.586368C39.9363 0.195456 40.9527 8.05634e-07 42.0602 8.05634e-07C42.8421 8.05634e-07 43.5783 0.110759 44.2689 0.332276C44.9595 0.553792 45.7088 0.912128 46.5166 1.40728L46.8685 0.195456ZM62.5784 15.2456H49.9519V14.5028C50.408 14.4898 50.7728 14.4507 51.0465 14.3856C51.3332 14.3204 51.5547 14.2096 51.711 14.0533C51.8674 13.8969 51.9716 13.6754 52.0238 13.3887C52.0759 13.1021 52.1019 12.7307 52.1019 12.2746V3.16639C52.1019 2.71032 52.0759 2.34547 52.0238 2.07183C51.9847 1.78516 51.8935 1.56365 51.7501 1.40728C51.6198 1.23789 51.4244 1.12713 51.1638 1.07501C50.9032 1.00986 50.5644 0.96425 50.1474 0.938189V0.195456H56.0892V0.938189C55.6723 0.95122 55.3335 0.990311 55.0729 1.05546C54.8253 1.12061 54.6298 1.23789 54.4865 1.40728C54.3562 1.57668 54.265 1.81122 54.2129 2.11092C54.1738 2.41062 54.1542 2.80805 54.1542 3.30321V11.7274C54.1542 12.2746 54.2064 12.7242 54.3106 13.076C54.4279 13.4148 54.6168 13.6819 54.8774 13.8774C55.1511 14.0598 55.5094 14.1901 55.9524 14.2683C56.3955 14.3334 56.9558 14.366 57.6333 14.366C58.3761 14.366 59.0015 14.3269 59.5097 14.2487C60.0179 14.1575 60.4414 14.0077 60.7802 13.7992C61.132 13.5777 61.4056 13.278 61.6011 12.9001C61.8096 12.5092 61.9855 12.0075 62.1288 11.3951H62.8716L62.5784 15.2456ZM68.3553 6.97778C69.059 6.97778 69.6453 6.93868 70.1144 6.8605C70.5965 6.76929 70.9744 6.63247 71.2481 6.45004C71.5347 6.26762 71.7367 6.03307 71.854 5.7464C71.9843 5.45974 72.0494 5.12094 72.0494 4.73003H72.7335V10.066H72.0494C72.0494 9.67507 71.9908 9.33628 71.8735 9.04961C71.7693 8.76294 71.5738 8.52839 71.2872 8.34597C71.0135 8.15051 70.6356 8.00718 70.1535 7.91596C69.6844 7.81172 69.085 7.7596 68.3553 7.7596V12.1769C68.3553 12.6069 68.4074 12.9652 68.5117 13.2519C68.6159 13.5255 68.7918 13.7536 69.0394 13.936C69.3 14.1054 69.6388 14.2292 70.0558 14.3074C70.4728 14.3725 70.9875 14.4051 71.5999 14.4051C72.2905 14.4051 72.8769 14.3595 73.359 14.2683C73.8411 14.164 74.2451 13.9946 74.5708 13.7601C74.8966 13.5255 75.1572 13.2193 75.3526 12.8415C75.5481 12.4505 75.711 11.9684 75.8413 11.3951H76.584L76.2908 15.2456H64.153V14.5028C64.6091 14.4898 64.9739 14.4507 65.2476 14.3856C65.5342 14.3204 65.7558 14.2096 65.9121 14.0533C66.0685 13.8969 66.1727 13.6754 66.2249 13.3887C66.277 13.1021 66.303 12.7307 66.303 12.2746V3.16639C66.303 2.71032 66.277 2.34547 66.2249 2.07183C66.1858 1.78516 66.0945 1.56365 65.9512 1.40728C65.8209 1.23789 65.6255 1.12713 65.3648 1.07501C65.1042 1.00986 64.7654 0.96425 64.3485 0.938189V0.195456H75.6458L75.8217 3.63548H75.1376C75.0595 3.11426 74.9292 2.69078 74.7467 2.36502C74.5773 2.02623 74.3363 1.7591 74.0235 1.56365C73.7238 1.36819 73.3394 1.23137 72.8704 1.15319C72.4013 1.07501 71.8344 1.03592 71.1699 1.03592H68.6876C68.4661 1.03592 68.3553 1.14667 68.3553 1.36819V6.97778ZM82.5373 11.5514C82.5373 12.203 82.5634 12.7177 82.6155 13.0955C82.6676 13.4734 82.7654 13.7666 82.9087 13.9751C83.0651 14.1836 83.2801 14.3204 83.5537 14.3856C83.8404 14.4507 84.2117 14.4898 84.6678 14.5028V15.2456H78.335V14.5028C78.7911 14.4898 79.1559 14.4507 79.4296 14.3856C79.7162 14.3074 79.9378 14.1706 80.0941 13.9751C80.2505 13.7796 80.3547 13.506 80.4069 13.1542C80.459 12.7893 80.485 12.3007 80.485 11.6883V3.75275C80.485 3.20548 80.459 2.75593 80.4069 2.40411C80.3678 2.03926 80.2766 1.75259 80.1332 1.5441C80.0029 1.33562 79.8075 1.19228 79.5469 1.1141C79.2862 1.02289 78.9475 0.96425 78.5305 0.938189V0.195456H84.4723V0.938189C84.0554 0.95122 83.7166 1.00334 83.456 1.09455C83.2084 1.18577 83.0129 1.34213 82.8696 1.56365C82.7393 1.77213 82.6481 2.06532 82.596 2.4432C82.5569 2.82108 82.5373 3.3032 82.5373 3.88957V11.5514Z" fill="white"/>
</svg>
