<svg width="269" height="72" viewBox="0 0 269 72" fill="none" xmlns="http://www.w3.org/2000/svg">
<path d="M91.2553 47.8045L72.6007 23.2197H72.4436V39.9892C72.4436 41.2983 72.4829 42.3325 72.5615 43.0917C72.6662 43.851 72.8495 44.4401 73.1113 44.859C73.3993 45.2779 73.792 45.5528 74.2895 45.6837C74.8131 45.8147 75.4938 45.8932 76.3316 45.9194V47.4117H65.7673V45.9194C66.6836 45.8932 67.4167 45.8147 67.9665 45.6837C68.5425 45.5267 68.9876 45.2517 69.3018 44.859C69.616 44.4663 69.8255 43.9165 69.9302 43.2096C70.0349 42.4765 70.0873 41.4947 70.0873 40.2641V24.3194C70.0873 23.2197 70.0349 22.3165 69.9302 21.6096C69.8516 20.8765 69.6684 20.3005 69.3804 19.8816C69.1185 19.4627 68.7258 19.1747 68.2022 19.0176C67.6785 18.8343 66.9978 18.7165 66.16 18.6641V17.1717H73.936L91.0982 40.0677H91.2553V24.5943C91.2553 23.3114 91.2029 22.2903 91.0982 21.531C91.0196 20.7456 90.8364 20.1434 90.5484 19.7245C90.2865 19.3056 89.8938 19.0307 89.3702 18.8997C88.8727 18.7688 88.2051 18.6903 87.3673 18.6641V17.1717H97.9316V18.6641C97.0153 18.6903 96.2691 18.7819 95.6931 18.939C95.1433 19.0699 94.7113 19.3317 94.3971 19.7245C94.0829 20.1172 93.8735 20.6801 93.7687 21.4132C93.664 22.1463 93.6116 23.115 93.6116 24.3194V47.8045H91.2553ZM127.792 35.2372C127.792 37.3056 127.583 39.1252 127.164 40.6961C126.771 42.267 126.117 43.5761 125.2 44.6234C124.31 45.6707 123.145 46.4692 121.705 47.019C120.265 47.5427 118.524 47.8045 116.482 47.8045C114.544 47.8045 112.856 47.6212 111.416 47.2547C109.976 46.8619 108.771 46.2336 107.803 45.3696C106.834 44.4794 106.114 43.3274 105.643 41.9136C105.171 40.4997 104.936 38.7587 104.936 36.6903V26.3223C104.936 24.3848 104.883 22.8925 104.779 21.8452C104.7 20.7979 104.438 20.0256 103.993 19.5281C103.679 19.1877 103.247 18.9652 102.697 18.8605C102.173 18.7296 101.467 18.6641 100.576 18.6641V17.1717H113.968V18.6641C113.078 18.6641 112.358 18.7165 111.808 18.8212C111.259 18.9259 110.827 19.1877 110.512 19.6067C110.146 20.0779 109.91 20.8372 109.805 21.8845C109.701 22.9056 109.648 24.3848 109.648 26.3223V37.0045C109.648 38.3397 109.779 39.531 110.041 40.5783C110.329 41.5994 110.787 42.4765 111.416 43.2096C112.044 43.9165 112.856 44.4532 113.851 44.8197C114.872 45.1863 116.115 45.3696 117.581 45.3696C120.2 45.3696 122.163 44.6496 123.472 43.2096C124.781 41.7434 125.436 39.5965 125.436 36.7688V27.3041C125.436 24.9739 125.344 23.2067 125.161 22.0023C124.978 20.7979 124.637 19.947 124.14 19.4496C123.773 19.1092 123.315 18.8997 122.765 18.8212C122.216 18.7165 121.535 18.6641 120.723 18.6641V17.1717H132.112V18.6641C131.275 18.6641 130.581 18.7296 130.031 18.8605C129.507 18.9914 129.088 19.2794 128.774 19.7245C128.381 20.2743 128.12 21.1383 127.989 22.3165C127.858 23.4685 127.792 25.131 127.792 27.3041V35.2372ZM159.94 17.1717H161.039L161.393 26.2045H159.94C159.364 23.9005 158.251 22.0939 156.601 20.7848C154.952 19.4757 152.962 18.8212 150.632 18.8212C149.035 18.8212 147.608 19.1354 146.351 19.7637C145.094 20.3921 144.034 21.2954 143.17 22.4736C142.306 23.6517 141.638 25.0917 141.167 26.7936C140.722 28.4954 140.5 30.4197 140.5 32.5667C140.5 36.7819 141.377 40.0285 143.131 42.3063C144.885 44.5579 147.425 45.6837 150.75 45.6837C155.803 45.6837 159.049 43.0001 160.489 37.6328H162.1V47.4117H160.725L159.822 44.3092C157.073 46.6394 153.748 47.8045 149.846 47.8045C147.621 47.8045 145.605 47.451 143.798 46.7441C142.018 46.0372 140.486 45.0423 139.204 43.7594C137.947 42.4503 136.965 40.8663 136.258 39.0074C135.577 37.1485 135.237 35.0801 135.237 32.8023C135.237 30.4197 135.604 28.2467 136.337 26.283C137.07 24.3194 138.091 22.6307 139.4 21.2168C140.735 19.803 142.319 18.7165 144.152 17.9572C146.011 17.1717 148.053 16.779 150.278 16.779C151.849 16.779 153.329 17.0016 154.716 17.4467C156.104 17.8917 157.609 18.6117 159.233 19.6067L159.94 17.1717ZM191.505 47.4117H166.135V45.9194C167.052 45.8932 167.785 45.8147 168.334 45.6837C168.91 45.5528 169.356 45.3303 169.67 45.0161C169.984 44.7019 170.193 44.2568 170.298 43.6808C170.403 43.1048 170.455 42.3587 170.455 41.4423V23.1412C170.455 22.2248 170.403 21.4917 170.298 20.9419C170.22 20.3659 170.036 19.9208 169.748 19.6067C169.486 19.2663 169.094 19.0437 168.57 18.939C168.046 18.8081 167.366 18.7165 166.528 18.6641V17.1717H178.467V18.6641C177.629 18.6903 176.948 18.7688 176.425 18.8997C175.927 19.0307 175.534 19.2663 175.246 19.6067C174.985 19.947 174.801 20.4183 174.697 21.0205C174.618 21.6227 174.579 22.4212 174.579 23.4161V40.3427C174.579 41.4423 174.684 42.3456 174.893 43.0525C175.129 43.7332 175.508 44.2699 176.032 44.6627C176.582 45.0292 177.302 45.291 178.192 45.4481C179.082 45.579 180.208 45.6445 181.569 45.6445C183.062 45.6445 184.318 45.5659 185.34 45.4088C186.361 45.2256 187.212 44.9245 187.892 44.5056C188.599 44.0605 189.149 43.4583 189.542 42.699C189.961 41.9136 190.314 40.9056 190.602 39.675H192.094L191.505 47.4117ZM203.113 30.7994C204.527 30.7994 205.705 30.7208 206.647 30.5637C207.616 30.3805 208.375 30.1056 208.925 29.739C209.501 29.3725 209.907 28.9012 210.143 28.3252C210.405 27.7492 210.535 27.0685 210.535 26.283H211.91V37.0045H210.535C210.535 36.219 210.418 35.5383 210.182 34.9623C209.973 34.3863 209.58 33.915 209.004 33.5485C208.454 33.1557 207.695 32.8677 206.726 32.6845C205.783 32.475 204.579 32.3703 203.113 32.3703V41.2459C203.113 42.1099 203.218 42.8299 203.427 43.4059C203.637 43.9557 203.99 44.4139 204.487 44.7805C205.011 45.1208 205.692 45.3696 206.53 45.5267C207.367 45.6576 208.402 45.723 209.632 45.723C211.02 45.723 212.198 45.6314 213.167 45.4481C214.135 45.2387 214.947 44.8983 215.602 44.427C216.256 43.9557 216.78 43.3405 217.173 42.5812C217.565 41.7957 217.893 40.827 218.154 39.675H219.647L219.058 47.4117H194.669V45.9194C195.586 45.8932 196.319 45.8147 196.869 45.6837C197.445 45.5528 197.89 45.3303 198.204 45.0161C198.518 44.7019 198.727 44.2568 198.832 43.6808C198.937 43.1048 198.989 42.3587 198.989 41.4423V23.1412C198.989 22.2248 198.937 21.4917 198.832 20.9419C198.754 20.3659 198.57 19.9208 198.282 19.6067C198.021 19.2663 197.628 19.0437 197.104 18.939C196.581 18.8081 195.9 18.7165 195.062 18.6641V17.1717H217.762L218.115 24.0837H216.741C216.583 23.0365 216.322 22.1856 215.955 21.531C215.615 20.8503 215.13 20.3136 214.502 19.9208C213.9 19.5281 213.127 19.2532 212.185 19.0961C211.242 18.939 210.103 18.8605 208.768 18.8605H203.781C203.335 18.8605 203.113 19.083 203.113 19.5281V30.7994ZM231.609 39.9892C231.609 41.2983 231.661 42.3325 231.766 43.0917C231.87 43.851 232.067 44.4401 232.355 44.859C232.669 45.2779 233.101 45.5528 233.651 45.6837C234.227 45.8147 234.973 45.8932 235.889 45.9194V47.4117H223.165V45.9194C224.081 45.8932 224.814 45.8147 225.364 45.6837C225.94 45.5267 226.385 45.2517 226.7 44.859C227.014 44.4663 227.223 43.9165 227.328 43.2096C227.433 42.4765 227.485 41.4947 227.485 40.2641V24.3194C227.485 23.2197 227.433 22.3165 227.328 21.6096C227.249 20.8765 227.066 20.3005 226.778 19.8816C226.516 19.4627 226.124 19.1747 225.6 19.0176C225.076 18.8343 224.396 18.7165 223.558 18.6641V17.1717H235.497V18.6641C234.659 18.6903 233.978 18.795 233.454 18.9783C232.957 19.1616 232.564 19.4757 232.276 19.9208C232.014 20.3397 231.831 20.9288 231.726 21.6881C231.648 22.4474 231.609 23.4161 231.609 24.5943V39.9892Z" fill="white"/>
<path d="M51.2941 55.5294H0L2.54331 51.2892H48.1097L51.2941 55.5294Z" fill="white"/>
<path d="M46.0586 48.561L47.3591 50.2924H41.1256L25.068 44.0159L10.7107 49.5816L10.7137 49.5844L8.88862 50.2918H3.1391L4.21412 48.501L8.62192 48.2978V39.1143C11.8911 36.5811 20.6567 35.4449 24.9839 35.4943V35.5066L25.227 35.4971H25.2553L25.5055 35.5066V35.4943C29.5041 35.4477 37.8046 36.485 41.3952 38.7845L41.4759 48.3844L46.0586 48.561ZM38.8325 45.5007V40.2665C38.8325 40.09 38.7418 39.9311 38.5864 39.8151C38.4375 39.6979 38.2267 39.6285 37.9942 39.6285C37.532 39.6285 37.1593 39.915 37.1593 40.2665V45.5007C37.1593 45.6773 37.2535 45.8361 37.4013 45.9522C37.5532 46.0655 37.761 46.1377 37.9942 46.1377C38.4593 46.1377 38.8325 45.8528 38.8325 45.5007ZM34.5165 44.3246V38.6606C34.5165 38.4713 34.4223 38.2991 34.274 38.1759C34.1233 38.0487 33.9149 37.9732 33.6823 37.9732C33.2166 37.9732 32.8428 38.283 32.8428 38.6606V44.3246C32.8428 44.5173 32.9346 44.6895 33.0901 44.8122C33.2378 44.9393 33.4498 45.0149 33.6823 45.0149C34.1421 45.016 34.5165 44.7061 34.5165 44.3246ZM30.2006 43.4367V37.7749C30.2006 37.5856 30.1093 37.4118 29.9545 37.2857C29.8067 37.1597 29.5948 37.0836 29.3628 37.0836C28.9013 37.0836 28.5268 37.3929 28.5268 37.7755V43.4373C28.5268 43.6266 28.6222 43.7993 28.77 43.922C28.9213 44.0492 29.1297 44.1253 29.3622 44.1253C29.8279 44.1247 30.2006 43.8154 30.2006 43.4367ZM25.8852 42.9886V37.5784C25.8852 37.3968 25.7898 37.2296 25.6421 37.1097C25.4907 36.9897 25.2823 36.9164 25.0504 36.9164C24.5853 36.9164 24.2126 37.213 24.2126 37.5778V42.988C24.2126 43.1663 24.3039 43.3323 24.4593 43.4528C24.6071 43.5728 24.819 43.6461 25.051 43.6461C25.5114 43.6466 25.8852 43.3501 25.8852 42.9886ZM21.5692 43.52V37.856C21.5692 37.6633 21.478 37.4912 21.3226 37.369C21.1748 37.2419 20.9634 37.1663 20.7309 37.1663C20.2693 37.1663 19.8961 37.4751 19.8961 37.8571V43.5206C19.8961 43.7105 19.9909 43.8826 20.1392 44.0053C20.2911 44.1325 20.4989 44.2086 20.7309 44.2086C21.1954 44.2086 21.5692 43.8987 21.5692 43.52ZM17.2533 44.3246V38.6606C17.2533 38.4713 17.1579 38.2991 17.0095 38.1759C16.8582 38.0487 16.6504 37.9732 16.4179 37.9732C15.9528 37.9732 15.5795 38.283 15.5795 38.6606V44.3246C15.5795 44.5173 15.6708 44.6895 15.8262 44.8122C15.974 44.9393 16.1847 45.0149 16.4179 45.0149C16.88 45.016 17.2533 44.7061 17.2533 44.3246ZM12.9373 45.5007V40.2665C12.9373 40.09 12.8449 39.9311 12.6906 39.8151C12.5429 39.6979 12.3309 39.6285 12.099 39.6285C11.6374 39.6285 11.2641 39.915 11.2641 40.2665V45.5007C11.2641 45.6773 11.3589 45.8361 11.5073 45.9522C11.6586 46.0655 11.8658 46.1377 12.099 46.1377C12.5635 46.1377 12.9373 45.8528 12.9373 45.5007Z" fill="white"/>
<path d="M42.8211 36.7899C43.1143 37.6045 43.0113 38.2692 42.8877 38.6373C42.694 38.4619 42.475 38.2892 42.2324 38.1215C38.3403 35.4244 29.1373 34.4143 25.2547 34.5004C25.2435 34.5004 25.237 34.5004 25.2264 34.5004C21.027 34.4143 11.313 35.5233 7.7612 38.4941C7.7612 38.4941 7.30553 37.6684 7.66583 36.7927C8.3564 36.2251 9.32839 35.6871 10.5653 35.1912C14.9272 33.4398 21.7158 32.6152 25.0845 32.6757V32.6824C25.1304 32.679 25.1764 32.679 25.2364 32.679C25.2435 32.679 25.25 32.679 25.2576 32.679C25.31 32.679 25.3559 32.679 25.4018 32.6824V32.6763C28.2201 32.6257 34.0408 33.211 38.577 34.7042C40.4633 35.3256 41.8939 36.0269 42.8211 36.7899Z" fill="white"/>
<path d="M39.8934 29.5721C36.9374 26.4552 28.7923 25.0903 24.895 25.2019C24.8914 25.2019 24.8838 25.2019 24.8814 25.2019C21.3014 25.1059 12.9756 26.3159 9.90359 29.5599C9.90006 29.5666 9.89241 29.5688 9.88946 29.5754C9.684 28.0317 10.3016 27.276 10.3016 27.276C11.1017 26.5441 12.2397 25.8733 13.6903 25.2719C17.5241 23.6899 22.3964 23.0652 24.7643 23.1185V23.129C24.8025 23.1257 24.8379 23.1224 24.8908 23.1224C24.8979 23.1224 24.905 23.1224 24.9085 23.1224C24.9468 23.1224 24.9821 23.1257 25.018 23.129V23.1185C27.34 23.0657 32.1911 23.6766 36.0278 25.2453C37.7186 25.9372 38.9909 26.7246 39.8004 27.5842C40.1165 28.4065 39.9635 29.2595 39.8934 29.5721Z" fill="white"/>
<path d="M39.1881 30.3279V33.8501C39.0997 33.819 39.0126 33.7907 38.9237 33.7607C37.9164 33.4286 36.8455 33.1427 35.7605 32.8933C35.7675 32.8761 35.7717 32.8595 35.7717 32.8395V30.048C35.7717 29.8586 35.4761 29.7098 35.1135 29.7098C34.7467 29.7098 34.4506 29.8592 34.4506 30.048V32.6173C33.7417 32.4785 33.0335 32.3547 32.3394 32.252C32.3541 32.2253 32.3612 32.1981 32.3612 32.1687V29.1312C32.3612 28.9291 32.0656 28.7619 31.7024 28.7619C31.3362 28.7619 31.0401 28.9291 31.0401 29.1312V32.0693C30.3142 31.9726 29.6089 31.896 28.943 31.8355C28.9501 31.8161 28.9548 31.7966 28.9548 31.7766V28.5443C28.9548 28.3244 28.6587 28.1472 28.2913 28.1472C27.9292 28.1472 27.6325 28.3244 27.6325 28.5443V31.7405C26.8377 31.6933 26.1283 31.6739 25.536 31.6817C25.5431 31.6639 25.5431 31.6467 25.5431 31.63V28.2699C25.5431 28.0439 25.2476 27.8618 24.8843 27.8618C24.5181 27.8618 24.2214 28.0439 24.2214 28.2699V31.63C24.2214 31.6461 24.2249 31.6667 24.2326 31.6839C23.6056 31.6939 22.9009 31.7305 22.1361 31.7877V28.5915C22.1361 28.3716 21.8406 28.195 21.4732 28.195C21.107 28.195 20.8115 28.3716 20.8115 28.5915V31.8277C20.8115 31.8533 20.8144 31.8777 20.825 31.9043C20.1521 31.9738 19.448 32.0604 18.7256 32.1631V29.1329C18.7256 28.9302 18.4295 28.7642 18.0633 28.7642C17.7007 28.7642 17.4045 28.9302 17.4045 29.1329V32.1703C17.4045 32.237 17.4369 32.3003 17.4964 32.3525C16.7705 32.4719 16.0416 32.6123 15.3157 32.7645V30.0491C15.3157 29.8598 15.0202 29.7109 14.6569 29.7109C14.2907 29.7109 13.9946 29.8603 13.9946 30.0491V32.8406C13.9946 32.9144 14.0405 32.9838 14.1218 33.0371C12.9738 33.3159 11.8564 33.6457 10.8237 34.0206V30.0946C13.6037 27.3665 21.0446 26.1404 24.6777 26.1976V26.2081C24.7342 26.2048 24.7907 26.2015 24.8608 26.2015H24.8996L25.111 26.2115V26.1987C28.8553 26.1432 36.6306 27.4659 39.1881 30.3279Z" fill="white"/>
<path d="M38.3497 50.2924H11.6721L25.0291 45.1082L38.3497 50.2924Z" fill="white"/>
<path d="M27.3852 13.3692C31.1307 14.6458 34.0838 18.494 35.5562 23.987C32.0091 22.7142 27.5089 22.0457 24.9408 22.1262C24.9302 22.1262 24.9202 22.1262 24.9091 22.1262C24.902 22.1262 24.8979 22.1262 24.8914 22.1262C22.6678 22.0562 18.0527 22.5987 14.1707 24.0136C15.4741 18.3707 18.5643 14.3732 22.5453 13.2398C24.1331 12.7839 25.8075 12.8311 27.3852 13.3692Z" fill="white"/>
<path d="M27.1216 7.61044V12.2433C25.7304 11.8707 24.2892 11.8301 22.8904 12.1233V7.73372C23.1824 7.48439 23.4932 7.29171 23.8135 7.1651C24.5217 6.87579 25.2971 6.86579 26.1213 7.13567C26.544 7.27449 26.8896 7.46385 27.1216 7.61044Z" fill="white"/>
<path d="M24.9056 0C25.1346 0.525308 25.5644 2.0668 25.6945 6.3409C25.1628 6.24817 24.6412 6.25372 24.1473 6.367C24.1196 2.8581 24.5641 0.725214 24.9056 0Z" fill="white"/>
</svg>
