<svg width="1470" height="364" viewBox="0 0 1470 364" fill="none" xmlns="http://www.w3.org/2000/svg">
<path d="M148.565 105V109.5C141.464 110.405 135.483 112.56 121.065 119.5C128.849 112.581 134.483 109.158 148.565 105Z" fill="white"/>
<path d="M113.565 216.5C157.672 190.582 181.37 174.772 222.065 144.5C197.064 112 180.461 114.053 155.065 114.5C171.695 116.345 178.727 118.961 183.565 129C158.741 117.002 145.215 117.67 129.106 125.623C121.915 129.173 115.438 134.149 110.397 140.386C89.0222 166.833 91.7362 194.686 106.565 218.5C93.9931 193.169 96.564 165.5 110.565 153C100.703 176.497 98.064 190.5 113.565 216.5Z" fill="white"/>
<path d="M145.564 310V314.5C105.505 307.566 85.9296 298.714 57.5643 271.5C91.2698 298.712 110.577 306.42 145.564 310Z" fill="white"/>
<path d="M23.5643 204L21.0643 205C17.2266 181.029 17.8308 167.808 22.5643 144.5C19.2019 170.049 19.1253 183.245 23.5643 204Z" fill="white"/>
<path d="M0.255583 267.339C3.90678 241.516 46.0487 202.277 86.064 174C52.4781 203.977 23.7941 232.721 26.3226 247.479C26.8102 250.325 29.481 252.127 32.3547 252.407C85.9763 257.644 311.483 96.4801 298.279 70.0507C297.901 69.2959 297.409 68.5757 296.821 67.9703C284.963 55.7521 194.564 100 194.564 100C194.564 100 296.397 37.8957 327.246 49.4089C329.844 50.3785 331.151 53.0488 330.683 55.782C319.098 123.507 46.7664 288.35 4.26392 275.241C1.0318 274.244 -0.217945 270.688 0.255583 267.339Z" fill="white"/>
<path d="M279.564 112.5C208.243 171.099 119.064 225 61.5645 253C86.5645 243.5 120.564 232 187.564 187C254.564 142 279.564 112.5 279.564 112.5Z" fill="black"/>
<path d="M185.064 308.5V313.5C311.064 283.5 299.564 166 299.564 166C299.564 166 305.564 282 185.064 308.5Z" fill="white"/>
<path d="M145.564 38.6952L145.564 35.0002C61.0645 46.5 34.5645 111.5 34.5645 111.5C34.5645 111.5 67.0645 47.5 145.564 38.6952Z" fill="white"/>
<path d="M175.064 255.5C167.151 256.878 162.684 257.004 154.564 255.5L165.564 363.5L175.064 255.5Z" fill="white"/>
<path d="M154.564 108C162.478 106.622 166.945 106.496 175.064 108L164.064 9.61651e-07L154.564 108Z" fill="white"/>
<circle cx="192.064" cy="133.5" r="6.5" fill="black"/>
<circle cx="195.564" cy="145" r="5" fill="black"/>
<path d="M221.064 174C184.269 199.395 162.754 212.926 123.064 236C150.893 251.801 167.442 252.231 192.953 241.8C198.031 239.724 202.607 236.579 206.527 232.743C220.948 218.632 236.698 200.361 230.564 167.5L227.564 170C233.064 186.5 225.688 212.044 205.564 229.5C217.215 211.993 222.585 201.313 221.064 174Z" fill="white"/>
<path d="M182.564 257V253C193.9 249.858 199.633 246.724 209.564 240.5C200.466 248.07 194.711 251.807 182.564 257Z" fill="white"/>
<path d="M431.064 217.75V145.75H443.064V155.688C444.398 153.562 445.731 151.792 447.064 150.375C448.439 148.958 450.21 147.833 452.377 147C454.585 146.167 457.564 145.583 461.314 145.25C465.064 144.875 470.002 144.688 476.127 144.688V154.75C467.877 154.75 461.481 155.042 456.939 155.625C452.439 156.208 449.21 157.208 447.252 158.625C445.294 160 444.106 161.917 443.689 164.375C443.273 166.833 443.064 169.958 443.064 173.75V217.75H431.064ZM573.876 196.375C573.876 201.75 573.064 205.979 571.439 209.062C569.856 212.146 567.418 214.396 564.126 215.812C560.835 217.229 556.626 218.125 551.502 218.5C546.418 218.917 540.356 219.125 533.314 219.125C525.273 219.125 518.439 218.708 512.814 217.875C507.231 217.083 502.71 215.438 499.252 212.938C495.835 210.396 493.335 206.604 491.752 201.562C490.21 196.521 489.439 189.792 489.439 181.375C489.439 173.208 490.189 166.667 491.689 161.75C493.231 156.833 495.71 153.125 499.127 150.625C502.544 148.125 507.023 146.458 512.564 145.625C518.148 144.792 524.96 144.375 533.002 144.375C542.21 144.375 549.835 145.021 555.876 146.312C561.918 147.604 566.418 150.062 569.376 153.688C572.376 157.312 573.876 162.625 573.876 169.625V185.062H501.502C501.544 190.396 501.919 194.667 502.627 197.875C503.335 201.083 504.752 203.5 506.877 205.125C509.002 206.75 512.169 207.833 516.377 208.375C520.627 208.875 526.273 209.125 533.314 209.125C539.647 209.125 544.752 209 548.626 208.75C552.543 208.5 555.502 207.958 557.502 207.125C559.543 206.25 560.918 204.958 561.626 203.25C562.335 201.542 562.689 199.25 562.689 196.375H573.876ZM533.002 154.375C526.21 154.375 520.731 154.625 516.564 155.125C512.439 155.625 509.294 156.604 507.127 158.062C504.96 159.479 503.481 161.604 502.689 164.438C501.939 167.271 501.544 171 501.502 175.625H562.376V169.625C562.376 166.625 562.022 164.146 561.314 162.188C560.647 160.188 559.314 158.625 557.314 157.5C555.314 156.333 552.356 155.521 548.439 155.062C544.564 154.604 539.418 154.375 533.002 154.375ZM623.064 217.75L585.439 145.75H599.564L631.064 208.75H631.189L663.314 145.75H676.689L639.064 217.75H623.064ZM688.689 217.75V149.75H700.689V217.75H688.689ZM688.689 133.75V121.75H700.689V133.75H688.689ZM757.376 219.125C748.626 219.125 741.585 218.833 736.252 218.25C730.96 217.667 726.939 216.583 724.189 215C721.481 213.417 719.647 211.167 718.689 208.25C717.772 205.333 717.314 201.542 717.314 196.875H728.814C728.814 199.5 729.002 201.625 729.376 203.25C729.752 204.833 730.814 206.062 732.564 206.938C734.314 207.771 737.147 208.354 741.064 208.688C745.022 208.979 750.564 209.125 757.689 209.125C765.231 209.125 771.085 208.979 775.252 208.688C779.46 208.354 782.481 207.771 784.314 206.938C786.147 206.062 787.252 204.812 787.626 203.188C788.043 201.562 788.252 199.417 788.252 196.75C788.252 193.5 787.96 191.062 787.376 189.438C786.793 187.812 785.418 186.729 783.252 186.188C781.085 185.604 777.626 185.292 772.876 185.25L744.252 184.938C736.876 184.854 731.252 184.229 727.376 183.062C723.502 181.896 720.856 179.854 719.439 176.938C718.022 173.979 717.314 169.792 717.314 164.375C717.314 159.333 718.085 155.438 719.626 152.688C721.21 149.938 723.668 147.979 727.002 146.812C730.335 145.646 734.668 144.958 740.002 144.75C745.335 144.5 751.772 144.375 759.314 144.375C768.189 144.375 775.231 144.646 780.439 145.188C785.689 145.729 789.606 146.75 792.189 148.25C794.814 149.75 796.522 151.938 797.314 154.812C798.147 157.646 798.564 161.354 798.564 165.938H787.064C787.064 163.229 786.876 161.104 786.502 159.562C786.126 157.979 785.106 156.833 783.439 156.125C781.814 155.375 779.147 154.896 775.439 154.688C771.772 154.479 766.606 154.375 759.939 154.375C752.356 154.375 746.46 154.458 742.252 154.625C738.043 154.792 735.002 155.188 733.126 155.812C731.252 156.438 730.106 157.438 729.689 158.812C729.272 160.146 729.064 162 729.064 164.375C729.064 166.792 729.189 168.708 729.439 170.125C729.731 171.5 730.46 172.542 731.626 173.25C732.793 173.958 734.689 174.438 737.314 174.688C739.981 174.896 743.689 175.021 748.439 175.062L773.126 175.312C780.543 175.396 786.168 176.021 790.002 177.188C793.876 178.312 796.502 180.417 797.876 183.5C799.293 186.542 800.002 190.958 800.002 196.75C800.002 201.958 799.231 206.062 797.689 209.062C796.189 212.062 793.772 214.292 790.439 215.75C787.106 217.167 782.71 218.083 777.252 218.5C771.835 218.917 765.21 219.125 757.376 219.125ZM849.376 217.75C842.043 217.75 836.168 217.021 831.752 215.562C827.335 214.062 824.126 211.438 822.126 207.688C820.168 203.896 819.189 198.583 819.189 191.75V126.062H831.189V145.75H875.502V155.625H831.189V191.75C831.189 196.417 831.606 199.896 832.439 202.188C833.314 204.479 835.043 205.979 837.626 206.688C840.252 207.396 844.168 207.75 849.376 207.75C854.002 207.75 857.626 207.604 860.252 207.312C862.918 207.021 864.876 206.25 866.126 205C867.376 203.708 868.168 201.604 868.502 198.688C868.835 195.771 869.002 191.667 869.002 186.375H879.626C879.626 193.292 879.189 198.833 878.314 203C877.481 207.167 875.96 210.312 873.752 212.438C871.585 214.562 868.522 215.979 864.564 216.688C860.647 217.396 855.585 217.75 849.376 217.75ZM931.189 219.125C922.564 219.125 915.439 218.667 909.814 217.75C904.231 216.875 900.064 214.917 897.314 211.875C894.606 208.833 893.252 204.104 893.252 197.688C893.252 191.146 894.522 186.354 897.064 183.312C899.647 180.229 903.71 178.229 909.252 177.312C914.835 176.396 922.147 175.938 931.189 175.938C938.522 175.938 944.668 176.104 949.626 176.438C954.585 176.771 959.022 177.354 962.939 178.188C962.856 172.646 962.481 168.292 961.814 165.125C961.147 161.917 959.897 159.542 958.064 158C956.231 156.458 953.543 155.479 950.002 155.062C946.502 154.604 941.835 154.375 936.002 154.375C929.335 154.375 924.106 154.521 920.314 154.812C916.564 155.104 913.835 155.625 912.126 156.375C910.418 157.125 909.335 158.208 908.876 159.625C908.46 161.042 908.252 162.875 908.252 165.125H896.252C896.252 160.625 896.856 157 898.064 154.25C899.314 151.5 901.418 149.417 904.376 148C907.335 146.583 911.376 145.625 916.502 145.125C921.668 144.625 928.168 144.375 936.002 144.375C944.418 144.375 951.189 144.917 956.314 146C961.481 147.083 965.397 149.042 968.064 151.875C970.772 154.667 972.585 158.583 973.502 163.625C974.46 168.667 974.939 175.167 974.939 183.125V217.75H962.939V212.812C961.522 214.312 959.564 215.521 957.064 216.438C954.564 217.354 951.231 218.021 947.064 218.438C942.939 218.896 937.647 219.125 931.189 219.125ZM931.189 209.375C938.314 209.375 944.002 209.292 948.252 209.125C952.502 208.958 955.668 208.5 957.752 207.75C959.876 207 961.272 205.792 961.939 204.125C962.606 202.458 962.939 200.125 962.939 197.125V186.062L931.189 185.688C925.564 185.604 921.022 185.688 917.564 185.938C914.147 186.146 911.543 186.646 909.752 187.438C907.96 188.188 906.752 189.396 906.126 191.062C905.543 192.688 905.252 194.896 905.252 197.688C905.252 200.396 905.543 202.542 906.126 204.125C906.752 205.708 907.96 206.875 909.752 207.625C911.543 208.375 914.147 208.854 917.564 209.062C921.022 209.271 925.564 209.375 931.189 209.375ZM1101.19 181.375C1101.19 175.417 1100.77 170.646 1099.94 167.062C1099.11 163.479 1097.56 160.792 1095.31 159C1093.06 157.167 1089.84 155.938 1085.63 155.312C1081.42 154.688 1075.92 154.375 1069.13 154.375C1061.71 154.375 1055.84 154.688 1051.5 155.312C1047.17 155.938 1043.98 157.167 1041.94 159C1039.9 160.792 1038.56 163.479 1037.94 167.062C1037.36 170.646 1037.06 175.417 1037.06 181.375C1037.06 187.542 1037.36 192.479 1037.94 196.188C1038.56 199.896 1039.9 202.688 1041.94 204.562C1043.98 206.396 1047.17 207.625 1051.5 208.25C1055.84 208.833 1061.71 209.125 1069.13 209.125C1075.92 209.125 1081.42 208.833 1085.63 208.25C1089.84 207.625 1093.06 206.396 1095.31 204.562C1097.56 202.688 1099.11 199.896 1099.94 196.188C1100.77 192.479 1101.19 187.542 1101.19 181.375ZM1025.06 181.375C1025.06 173.208 1025.86 166.667 1027.44 161.75C1029.02 156.833 1031.54 153.125 1035 150.625C1038.46 148.125 1043 146.458 1048.63 145.625C1054.25 144.792 1061.09 144.375 1069.13 144.375C1076.84 144.375 1083.34 144.958 1088.63 146.125C1093.96 147.292 1098.15 149.896 1101.19 153.938V145.75H1113.19V241.75H1101.19V209.5C1098.15 213.583 1093.96 216.208 1088.63 217.375C1083.34 218.542 1076.84 219.125 1069.13 219.125C1061.09 219.125 1054.25 218.708 1048.63 217.875C1043 217.083 1038.46 215.438 1035 212.938C1031.54 210.396 1029.02 206.604 1027.44 201.562C1025.86 196.521 1025.06 189.792 1025.06 181.375ZM1166.44 219.125C1157.02 219.125 1149.61 218.104 1144.19 216.062C1138.77 213.979 1134.92 210.521 1132.63 205.688C1130.34 200.812 1129.19 194.167 1129.19 185.75V145.75H1141.25V185.75C1141.25 190.5 1141.63 194.417 1142.38 197.5C1143.17 200.542 1144.54 202.917 1146.5 204.625C1148.46 206.292 1151.21 207.458 1154.75 208.125C1158.34 208.792 1162.94 209.125 1168.56 209.125C1176.9 209.125 1183.44 208.438 1188.19 207.062C1192.94 205.688 1196.29 203.542 1198.25 200.625C1200.25 197.667 1201.25 193.833 1201.25 189.125V145.75H1213.25V217.75H1201.25V208.188C1199.5 210.604 1197.29 212.625 1194.63 214.25C1191.96 215.875 1188.4 217.083 1183.94 217.875C1179.48 218.708 1173.65 219.125 1166.44 219.125ZM1267.56 219.125C1258.94 219.125 1251.81 218.667 1246.19 217.75C1240.61 216.875 1236.44 214.917 1233.69 211.875C1230.98 208.833 1229.63 204.104 1229.63 197.688C1229.63 191.146 1230.9 186.354 1233.44 183.312C1236.02 180.229 1240.09 178.229 1245.63 177.312C1251.21 176.396 1258.52 175.938 1267.56 175.938C1274.9 175.938 1281.04 176.104 1286 176.438C1290.96 176.771 1295.4 177.354 1299.31 178.188C1299.23 172.646 1298.86 168.292 1298.19 165.125C1297.52 161.917 1296.27 159.542 1294.44 158C1292.61 156.458 1289.92 155.479 1286.38 155.062C1282.88 154.604 1278.21 154.375 1272.38 154.375C1265.71 154.375 1260.48 154.521 1256.69 154.812C1252.94 155.104 1250.21 155.625 1248.5 156.375C1246.79 157.125 1245.71 158.208 1245.25 159.625C1244.84 161.042 1244.63 162.875 1244.63 165.125H1232.63C1232.63 160.625 1233.23 157 1234.44 154.25C1235.69 151.5 1237.79 149.417 1240.75 148C1243.71 146.583 1247.75 145.625 1252.88 145.125C1258.04 144.625 1264.54 144.375 1272.38 144.375C1280.79 144.375 1287.56 144.917 1292.69 146C1297.86 147.083 1301.77 149.042 1304.44 151.875C1307.15 154.667 1308.96 158.583 1309.88 163.625C1310.84 168.667 1311.31 175.167 1311.31 183.125V217.75H1299.31V212.812C1297.9 214.312 1295.94 215.521 1293.44 216.438C1290.94 217.354 1287.61 218.021 1283.44 218.438C1279.31 218.896 1274.02 219.125 1267.56 219.125ZM1267.56 209.375C1274.69 209.375 1280.38 209.292 1284.63 209.125C1288.88 208.958 1292.04 208.5 1294.13 207.75C1296.25 207 1297.65 205.792 1298.31 204.125C1298.98 202.458 1299.31 200.125 1299.31 197.125V186.062L1267.56 185.688C1261.94 185.604 1257.4 185.688 1253.94 185.938C1250.52 186.146 1247.92 186.646 1246.13 187.438C1244.34 188.188 1243.13 189.396 1242.5 191.062C1241.92 192.688 1241.63 194.896 1241.63 197.688C1241.63 200.396 1241.92 202.542 1242.5 204.125C1243.13 205.708 1244.34 206.875 1246.13 207.625C1247.92 208.375 1250.52 208.854 1253.94 209.062C1257.4 209.271 1261.94 209.375 1267.56 209.375ZM1328.31 217.75V145.75H1340.31V155.688C1341.65 153.562 1342.98 151.792 1344.31 150.375C1345.69 148.958 1347.46 147.833 1349.63 147C1351.84 146.167 1354.81 145.583 1358.56 145.25C1362.31 144.875 1367.25 144.688 1373.38 144.688V154.75C1365.13 154.75 1358.73 155.042 1354.19 155.625C1349.69 156.208 1346.46 157.208 1344.5 158.625C1342.54 160 1341.36 161.917 1340.94 164.375C1340.52 166.833 1340.31 169.958 1340.31 173.75V217.75H1328.31ZM1389.06 217.75V121.75H1401.06V177.188L1448.87 145.75H1467.06L1416.25 179.562L1469.06 217.75H1451.19L1401.06 180.812V217.75H1389.06Z" fill="white"/>
</svg>
