<svg width="633" height="192" viewBox="0 0 633 192" fill="none" xmlns="http://www.w3.org/2000/svg">
<g clip-path="url(#clip0_99_144)">
<path d="M97.0546 132L98.3637 166.8C98.3637 166.8 98.3637 167.455 98.8 167.455C99.2364 167.455 99.2364 166.8 99.2364 166.8L100.545 132" fill="#FCBF49"/>
<path d="M97.0546 132L98.3637 166.8C98.3637 166.8 98.3637 167.455 98.8 167.455C99.2364 167.455 99.2364 166.8 99.2364 166.8L100.545 132" stroke="#843511" stroke-width="0.327273"/>
<path d="M97.9273 132L98.8 155.891L99.6727 132" fill="#843511"/>
<path d="M95.5107 143.243C93.5065 147.622 95.2276 151.2 93.2252 155.023C91.2228 158.846 92.4747 161.996 92.3405 163.75C92.2063 165.503 90.7712 165.991 91.1336 166.398C91.4959 166.806 92.9962 165.998 93.5816 163.668C94.167 161.338 92.7701 159.996 95.1712 155.308C97.5722 150.62 95.6644 148.506 98.0745 144.321" fill="#FCBF49"/>
<path d="M95.5107 143.243C93.5065 147.622 95.2276 151.2 93.2252 155.023C91.2228 158.846 92.4747 161.996 92.3405 163.75C92.2063 165.503 90.7712 165.991 91.1336 166.398C91.4959 166.806 92.9962 165.998 93.5816 163.668C94.167 161.338 92.7701 159.996 95.1712 155.308C97.5722 150.62 95.6644 148.506 98.0745 144.321" stroke="#843511" stroke-width="0.327273"/>
<path d="M96.0633 144.357C94.5084 148.716 96.1462 151.61 94.0587 155.304C96.3781 152.659 94.849 149.231 96.875 144.745" fill="#843511"/>
<path d="M100.545 132L99.2364 97.2C99.2364 97.2 99.2364 96.5454 98.8 96.5454C98.3637 96.5454 98.3637 97.2 98.3637 97.2L97.0546 132" fill="#FCBF49"/>
<path d="M100.545 132L99.2364 97.2C99.2364 97.2 99.2364 96.5454 98.8 96.5454C98.3637 96.5454 98.3637 97.2 98.3637 97.2L97.0546 132" stroke="#843511" stroke-width="0.327273"/>
<path d="M99.6727 132L98.8 108.109L97.9273 132" fill="#843511"/>
<path d="M102.089 120.757C104.094 116.378 102.372 112.799 104.375 108.976C106.377 105.154 105.125 102.004 105.26 100.25C105.394 98.4965 106.829 98.0092 106.466 97.6015C106.104 97.1938 104.604 98.0018 104.018 100.332C103.433 102.662 104.83 104.004 102.429 108.692C100.028 113.38 101.936 115.494 99.5255 119.679" fill="#FCBF49"/>
<path d="M102.089 120.757C104.094 116.378 102.372 112.799 104.375 108.976C106.377 105.154 105.125 102.004 105.26 100.25C105.394 98.4965 106.829 98.0092 106.466 97.6015C106.104 97.1938 104.604 98.0018 104.018 100.332C103.433 102.662 104.83 104.004 102.429 108.692C100.028 113.38 101.936 115.494 99.5255 119.679" stroke="#843511" stroke-width="0.327273"/>
<path d="M101.537 119.643C103.092 115.284 101.454 112.39 103.541 108.696C101.222 111.341 102.751 114.769 100.725 119.255" fill="#843511"/>
<path d="M98.8 130.255L64 131.564C64 131.564 63.3455 131.564 63.3455 132C63.3455 132.436 64 132.436 64 132.436L98.8 133.745" fill="#FCBF49"/>
<path d="M98.8 130.255L64 131.564C64 131.564 63.3455 131.564 63.3455 132C63.3455 132.436 64 132.436 64 132.436L98.8 133.745" stroke="#843511" stroke-width="0.327273"/>
<path d="M98.8 131.127L74.9091 132L98.8 132.873" fill="#843511"/>
<path d="M87.5574 128.711C83.1782 126.706 79.5995 128.428 75.7766 126.425C71.9536 124.423 68.8044 125.675 67.0505 125.54C65.2966 125.406 64.8093 123.971 64.4016 124.334C63.9939 124.696 64.8019 126.196 67.132 126.782C69.462 127.367 70.8038 125.97 75.492 128.371C80.1801 130.772 82.2938 128.864 86.4792 131.274" fill="#FCBF49"/>
<path d="M87.5574 128.711C83.1782 126.706 79.5995 128.428 75.7766 126.425C71.9536 124.423 68.8044 125.675 67.0505 125.54C65.2966 125.406 64.8093 123.971 64.4016 124.334C63.9939 124.696 64.8019 126.196 67.132 126.782C69.462 127.367 70.8038 125.97 75.492 128.371C80.1801 130.772 82.2938 128.864 86.4792 131.274" stroke="#843511" stroke-width="0.327273"/>
<path d="M86.443 129.263C82.0837 127.708 79.19 129.346 75.4957 127.259C78.1409 129.578 81.5691 128.049 86.0552 130.075" fill="#843511"/>
<path d="M98.8 133.745L133.6 132.436C133.6 132.436 134.255 132.436 134.255 132C134.255 131.564 133.6 131.564 133.6 131.564L98.8 130.255" fill="#FCBF49"/>
<path d="M98.8 133.745L133.6 132.436C133.6 132.436 134.255 132.436 134.255 132C134.255 131.564 133.6 131.564 133.6 131.564L98.8 130.255" stroke="#843511" stroke-width="0.327273"/>
<path d="M98.8 132.873L122.691 132L98.8 131.127" fill="#843511"/>
<path d="M110.043 135.289C114.422 137.294 118.001 135.572 121.824 137.575C125.647 139.577 128.796 138.325 130.55 138.46C132.304 138.594 132.791 140.029 133.199 139.666C133.606 139.304 132.798 137.804 130.468 137.218C128.138 136.633 126.796 138.03 122.108 135.629C117.42 133.228 115.306 135.136 111.121 132.726" fill="#FCBF49"/>
<path d="M110.043 135.289C114.422 137.294 118.001 135.572 121.824 137.575C125.647 139.577 128.796 138.325 130.55 138.46C132.304 138.594 132.791 140.029 133.199 139.666C133.606 139.304 132.798 137.804 130.468 137.218C128.138 136.633 126.796 138.03 122.108 135.629C117.42 133.228 115.306 135.136 111.121 132.726" stroke="#843511" stroke-width="0.327273"/>
<path d="M111.157 134.737C115.516 136.292 118.41 134.654 122.104 136.741C119.459 134.422 116.031 135.951 111.545 133.925" fill="#843511"/>
<path d="M97.5658 130.766L73.8842 156.299C73.8842 156.299 73.4213 156.762 73.7299 157.07C74.0385 157.379 74.5013 156.916 74.5013 156.916L100.034 133.234" fill="#FCBF49"/>
<path d="M97.5658 130.766L73.8842 156.299C73.8842 156.299 73.4213 156.762 73.7299 157.07C74.0385 157.379 74.5013 156.916 74.5013 156.916L100.034 133.234" stroke="#843511" stroke-width="0.327273"/>
<path d="M98.1829 131.383L81.9066 148.893L99.4171 132.617" fill="#843511"/>
<path d="M88.5244 137.624C84.0106 139.303 82.6972 143.051 78.578 144.338C74.4589 145.625 73.1172 148.737 71.7822 149.883C70.4471 151.028 69.0878 150.358 69.0557 150.902C69.0236 151.447 70.6559 151.936 72.7174 150.703C74.7789 149.469 74.74 147.533 79.7528 145.915C84.7656 144.298 84.9112 141.454 89.5749 140.199" fill="#FCBF49"/>
<path d="M88.5244 137.624C84.0106 139.303 82.6972 143.051 78.578 144.338C74.4589 145.625 73.1172 148.737 71.7822 149.883C70.4471 151.028 69.0878 150.358 69.0557 150.902C69.0236 151.447 70.6559 151.936 72.7174 150.703C74.7789 149.469 74.74 147.533 79.7528 145.915C84.7656 144.298 84.9112 141.454 89.5749 140.199" stroke="#843511" stroke-width="0.327273"/>
<path d="M88.1272 138.803C83.9452 140.786 83.0571 143.99 78.9687 145.126C82.4792 144.896 83.8222 141.39 88.4269 139.651" fill="#843511"/>
<path d="M100.034 133.234L123.716 107.701C123.716 107.701 124.179 107.238 123.87 106.93C123.562 106.621 123.099 107.084 123.099 107.084L97.5659 130.766" fill="#FCBF49"/>
<path d="M100.034 133.234L123.716 107.701C123.716 107.701 124.179 107.238 123.87 106.93C123.562 106.621 123.099 107.084 123.099 107.084L97.5659 130.766" stroke="#843511" stroke-width="0.327273"/>
<path d="M99.4172 132.617L115.693 115.107L98.183 131.383" fill="#843511"/>
<path d="M109.076 126.376C113.589 124.697 114.903 120.949 119.022 119.662C123.141 118.375 124.483 115.263 125.818 114.117C127.153 112.972 128.512 113.642 128.544 113.098C128.577 112.553 126.944 112.064 124.883 113.297C122.821 114.531 122.86 116.467 117.847 118.085C112.835 119.702 112.689 122.546 108.025 123.801" fill="#FCBF49"/>
<path d="M109.076 126.376C113.589 124.697 114.903 120.949 119.022 119.662C123.141 118.375 124.483 115.263 125.818 114.117C127.153 112.972 128.512 113.642 128.544 113.098C128.577 112.553 126.944 112.064 124.883 113.297C122.821 114.531 122.86 116.467 117.847 118.085C112.835 119.702 112.689 122.546 108.025 123.801" stroke="#843511" stroke-width="0.327273"/>
<path d="M109.473 125.197C113.655 123.214 114.543 120.01 118.631 118.874C115.121 119.104 113.778 122.61 109.173 124.349" fill="#843511"/>
<path d="M100.034 130.766L74.5013 107.084C74.5013 107.084 74.0385 106.621 73.7299 106.93C73.4213 107.238 73.8842 107.701 73.8842 107.701L97.5658 133.234" fill="#FCBF49"/>
<path d="M100.034 130.766L74.5013 107.084C74.5013 107.084 74.0385 106.621 73.7299 106.93C73.4213 107.238 73.8842 107.701 73.8842 107.701L97.5658 133.234" stroke="#843511" stroke-width="0.327273"/>
<path d="M99.4172 131.383L81.9066 115.107L98.183 132.617" fill="#843511"/>
<path d="M93.1762 121.724C91.4968 117.211 87.7493 115.897 86.462 111.778C85.1746 107.659 82.0626 106.317 80.9173 104.982C79.772 103.647 80.4422 102.288 79.8976 102.256C79.3531 102.224 78.8636 103.856 80.0973 105.917C81.331 107.979 83.2675 107.94 84.8847 112.953C86.502 117.966 89.3456 118.111 90.6009 122.775" fill="#FCBF49"/>
<path d="M93.1762 121.724C91.4968 117.211 87.7493 115.897 86.462 111.778C85.1746 107.659 82.0626 106.317 80.9173 104.982C79.772 103.647 80.4422 102.288 79.8976 102.256C79.3531 102.224 78.8636 103.856 80.0973 105.917C81.331 107.979 83.2675 107.94 84.8847 112.953C86.502 117.966 89.3456 118.111 90.6009 122.775" stroke="#843511" stroke-width="0.327273"/>
<path d="M91.9975 121.327C90.0145 117.145 86.8102 116.257 85.674 112.169C85.9044 115.679 89.4097 117.022 91.1493 121.627" fill="#843511"/>
<path d="M97.5658 133.234L123.099 156.916C123.099 156.916 123.562 157.379 123.87 157.07C124.179 156.762 123.716 156.299 123.716 156.299L100.034 130.766" fill="#FCBF49"/>
<path d="M97.5658 133.234L123.099 156.916C123.099 156.916 123.562 157.379 123.87 157.07C124.179 156.762 123.716 156.299 123.716 156.299L100.034 130.766" stroke="#843511" stroke-width="0.327273"/>
<path d="M98.1829 132.617L115.693 148.893L99.4171 131.383" fill="#843511"/>
<path d="M104.424 142.276C106.103 146.789 109.851 148.103 111.138 152.222C112.426 156.341 115.537 157.683 116.683 159.018C117.828 160.353 117.158 161.712 117.702 161.744C118.247 161.776 118.737 160.144 117.503 158.083C116.269 156.021 114.333 156.06 112.715 151.047C111.098 146.034 108.255 145.889 106.999 141.225" fill="#FCBF49"/>
<path d="M104.424 142.276C106.103 146.789 109.851 148.103 111.138 152.222C112.426 156.341 115.537 157.683 116.683 159.018C117.828 160.353 117.158 161.712 117.702 161.744C118.247 161.776 118.737 160.144 117.503 158.083C116.269 156.021 114.333 156.06 112.715 151.047C111.098 146.034 108.255 145.889 106.999 141.225" stroke="#843511" stroke-width="0.327273"/>
<path d="M105.603 142.673C107.586 146.855 110.79 147.743 111.926 151.831C111.696 148.321 108.19 146.978 106.451 142.373" fill="#843511"/>
<path d="M97.1875 131.332L85.0795 163.984C85.0795 163.984 84.829 164.589 85.2322 164.756C85.6353 164.923 85.8858 164.318 85.8858 164.318L100.413 132.668" fill="#FCBF49"/>
<path d="M97.1875 131.332L85.0795 163.984C85.0795 163.984 84.829 164.589 85.2322 164.756C85.6353 164.923 85.8858 164.318 85.8858 164.318L100.413 132.668" stroke="#843511" stroke-width="0.327273"/>
<path d="M97.9938 131.666L89.6574 154.072L99.6064 132.334" fill="#843511"/>
<path d="M91.4588 141.128C87.9313 144.407 88.1519 148.372 84.8389 151.138C81.526 153.903 81.4774 157.292 80.6822 158.861C79.8871 160.43 78.3748 160.331 78.5535 160.846C78.7323 161.362 80.4276 161.189 81.8601 159.261C83.2926 157.332 82.5155 155.558 86.5279 152.145C90.5402 148.733 89.5865 146.05 93.4148 143.105" fill="#FCBF49"/>
<path d="M91.4588 141.128C87.9313 144.407 88.1519 148.372 84.8389 151.138C81.526 153.903 81.4774 157.292 80.6822 158.861C79.8871 160.43 78.3748 160.331 78.5535 160.846C78.7323 161.362 80.4276 161.189 81.8601 159.261C83.2926 157.332 82.5155 155.558 86.5279 152.145C90.5402 148.733 89.5865 146.05 93.4148 143.105" stroke="#843511" stroke-width="0.327273"/>
<path d="M91.5429 142.369C88.4381 145.802 88.8438 149.102 85.5015 151.716C88.6566 150.16 88.5559 146.407 92.1444 143.038" fill="#843511"/>
<path d="M100.413 132.668L112.521 100.016C112.521 100.016 112.771 99.4113 112.368 99.2443C111.965 99.0773 111.714 99.682 111.714 99.682L97.1875 131.332" fill="#FCBF49"/>
<path d="M100.413 132.668L112.521 100.016C112.521 100.016 112.771 99.4113 112.368 99.2443C111.965 99.0773 111.714 99.682 111.714 99.682L97.1875 131.332" stroke="#843511" stroke-width="0.327273"/>
<path d="M99.6064 132.334L107.943 109.928L97.9938 131.666" fill="#843511"/>
<path d="M106.141 122.872C109.669 119.593 109.448 115.628 112.761 112.862C116.074 110.097 116.123 106.708 116.918 105.139C117.713 103.57 119.225 103.669 119.047 103.154C118.868 102.638 117.173 102.811 115.74 104.739C114.308 106.668 115.085 108.442 111.072 111.855C107.06 115.267 108.014 117.95 104.185 120.895" fill="#FCBF49"/>
<path d="M106.141 122.872C109.669 119.593 109.448 115.628 112.761 112.862C116.074 110.097 116.123 106.708 116.918 105.139C117.713 103.57 119.225 103.669 119.047 103.154C118.868 102.638 117.173 102.811 115.74 104.739C114.308 106.668 115.085 108.442 111.072 111.855C107.06 115.267 108.014 117.95 104.185 120.895" stroke="#843511" stroke-width="0.327273"/>
<path d="M106.057 121.631C109.162 118.198 108.756 114.898 112.099 112.284C108.944 113.84 109.044 117.593 105.456 120.962" fill="#843511"/>
<path d="M99.468 130.387L66.816 118.279C66.816 118.279 66.2113 118.029 66.0443 118.432C65.8773 118.835 66.4821 119.086 66.4821 119.086L98.1321 133.613" fill="#FCBF49"/>
<path d="M99.468 130.387L66.816 118.279C66.816 118.279 66.2113 118.029 66.0443 118.432C65.8773 118.835 66.4821 119.086 66.4821 119.086L98.1321 133.613" stroke="#843511" stroke-width="0.327273"/>
<path d="M99.134 131.194L76.7277 122.857L98.4661 132.806" fill="#843511"/>
<path d="M89.672 124.659C86.393 121.131 82.4282 121.352 79.6625 118.039C76.8968 114.726 73.5083 114.677 71.9392 113.882C70.3702 113.087 70.4691 111.575 69.9538 111.753C69.4385 111.932 69.6108 113.628 71.5395 115.06C73.4682 116.493 75.2424 115.715 78.6549 119.728C82.0673 123.74 84.7502 122.786 87.6947 126.615" fill="#FCBF49"/>
<path d="M89.672 124.659C86.393 121.131 82.4282 121.352 79.6625 118.039C76.8968 114.726 73.5083 114.677 71.9392 113.882C70.3702 113.087 70.4691 111.575 69.9538 111.753C69.4385 111.932 69.6108 113.628 71.5395 115.06C73.4682 116.493 75.2424 115.715 78.6549 119.728C82.0673 123.74 84.7502 122.786 87.6947 126.615" stroke="#843511" stroke-width="0.327273"/>
<path d="M88.431 124.743C84.9985 121.638 81.6983 122.044 79.0841 118.701C80.6403 121.857 84.3927 121.756 87.7621 125.344" fill="#843511"/>
<path d="M98.1321 133.613L130.784 145.721C130.784 145.721 131.389 145.971 131.556 145.568C131.723 145.165 131.118 144.914 131.118 144.914L99.468 130.387" fill="#FCBF49"/>
<path d="M98.1321 133.613L130.784 145.721C130.784 145.721 131.389 145.971 131.556 145.568C131.723 145.165 131.118 144.914 131.118 144.914L99.468 130.387" stroke="#843511" stroke-width="0.327273"/>
<path d="M98.4661 132.806L120.872 141.143L99.134 131.194" fill="#843511"/>
<path d="M107.928 139.341C111.207 142.869 115.172 142.648 117.938 145.961C120.703 149.274 124.092 149.323 125.661 150.118C127.23 150.913 127.131 152.425 127.646 152.247C128.162 152.068 127.989 150.373 126.061 148.94C124.132 147.508 122.358 148.285 118.945 144.272C115.533 140.26 112.85 141.214 109.905 137.385" fill="#FCBF49"/>
<path d="M107.928 139.341C111.207 142.869 115.172 142.648 117.938 145.961C120.703 149.274 124.092 149.323 125.661 150.118C127.23 150.913 127.131 152.425 127.646 152.247C128.162 152.068 127.989 150.373 126.061 148.94C124.132 147.508 122.358 148.285 118.945 144.272C115.533 140.26 112.85 141.214 109.905 137.385" stroke="#843511" stroke-width="0.327273"/>
<path d="M109.169 139.257C112.602 142.362 115.902 141.956 118.516 145.299C116.96 142.143 113.207 142.244 109.838 138.656" fill="#843511"/>
<path d="M98.1321 130.387L66.4821 144.914C66.4821 144.914 65.8773 145.165 66.0443 145.568C66.2113 145.971 66.816 145.721 66.816 145.721L99.468 133.613" fill="#FCBF49"/>
<path d="M98.1321 130.387L66.4821 144.914C66.4821 144.914 65.8773 145.165 66.0443 145.568C66.2113 145.971 66.816 145.721 66.816 145.721L99.468 133.613" stroke="#843511" stroke-width="0.327273"/>
<path d="M98.4661 131.194L76.7278 141.143L99.1341 132.806" fill="#843511"/>
<path d="M87.1545 133.264C82.3416 133.088 79.694 136.047 75.3957 135.66C71.0975 135.273 68.6671 137.635 66.9953 138.182C65.3236 138.729 64.3242 137.59 64.0862 138.081C63.8482 138.572 65.1688 139.649 67.5456 139.298C69.9223 138.947 70.6274 137.143 75.8775 137.567C81.1276 137.991 82.3504 135.42 87.1394 136.045" fill="#FCBF49"/>
<path d="M87.1545 133.264C82.3416 133.088 79.694 136.047 75.3957 135.66C71.0975 135.273 68.6671 137.635 66.9953 138.182C65.3236 138.729 64.3242 137.59 64.0862 138.081C63.8482 138.572 65.1688 139.649 67.5456 139.298C69.9223 138.947 70.6274 137.143 75.8775 137.567C81.1276 137.991 82.3504 135.42 87.1394 136.045" stroke="#843511" stroke-width="0.327273"/>
<path d="M86.3364 134.2C81.7138 134.432 79.6672 137.053 75.4552 136.538C78.7866 137.668 81.3688 134.944 86.2887 135.099" fill="#843511"/>
<path d="M99.468 133.613L131.118 119.086C131.118 119.086 131.723 118.835 131.556 118.432C131.389 118.029 130.784 118.279 130.784 118.279L98.1321 130.387" fill="#FCBF49"/>
<path d="M99.468 133.613L131.118 119.086C131.118 119.086 131.723 118.835 131.556 118.432C131.389 118.029 130.784 118.279 130.784 118.279L98.1321 130.387" stroke="#843511" stroke-width="0.327273"/>
<path d="M99.134 132.806L120.872 122.857L98.4661 131.194" fill="#843511"/>
<path d="M110.446 130.737C115.259 130.912 117.906 127.953 122.204 128.34C126.503 128.727 128.933 126.365 130.605 125.818C132.277 125.271 133.276 126.41 133.514 125.919C133.752 125.428 132.431 124.351 130.055 124.702C127.678 125.053 126.973 126.857 121.723 126.433C116.472 126.009 115.25 128.58 110.461 127.955" fill="#FCBF49"/>
<path d="M110.446 130.737C115.259 130.912 117.906 127.953 122.204 128.34C126.503 128.727 128.933 126.365 130.605 125.818C132.277 125.271 133.276 126.41 133.514 125.919C133.752 125.428 132.431 124.351 130.055 124.702C127.678 125.053 126.973 126.857 121.723 126.433C116.472 126.009 115.25 128.58 110.461 127.955" stroke="#843511" stroke-width="0.327273"/>
<path d="M111.264 129.8C115.886 129.568 117.933 126.947 122.145 127.462C118.813 126.332 116.231 129.056 111.311 128.901" fill="#843511"/>
<path d="M100.413 131.332L85.8858 99.682C85.8858 99.682 85.6353 99.0773 85.2322 99.2443C84.8291 99.4113 85.0795 100.016 85.0795 100.016L97.1875 132.668" fill="#FCBF49"/>
<path d="M100.413 131.332L85.8858 99.682C85.8858 99.682 85.6353 99.0773 85.2322 99.2443C84.8291 99.4113 85.0795 100.016 85.0795 100.016L97.1875 132.668" stroke="#843511" stroke-width="0.327273"/>
<path d="M99.6064 131.666L89.6574 109.928L97.9938 132.334" fill="#843511"/>
<path d="M97.5366 120.354C97.7124 115.542 94.7528 112.894 95.1398 108.596C95.5267 104.297 93.1651 101.867 92.6178 100.195C92.0706 98.5235 93.21 97.5241 92.7192 97.2862C92.2284 97.0482 91.1515 98.3688 91.5023 100.746C91.8532 103.122 93.6572 103.827 93.233 109.077C92.8088 114.328 95.3803 115.55 94.7553 120.339" fill="#FCBF49"/>
<path d="M97.5366 120.354C97.7124 115.542 94.7528 112.894 95.1398 108.596C95.5267 104.297 93.1651 101.867 92.6178 100.195C92.0706 98.5235 93.21 97.5241 92.7192 97.2862C92.2284 97.0482 91.1515 98.3688 91.5023 100.746C91.8532 103.122 93.6572 103.827 93.233 109.077C92.8088 114.328 95.3803 115.55 94.7553 120.339" stroke="#843511" stroke-width="0.327273"/>
<path d="M96.5996 119.536C96.3679 114.914 93.7474 112.867 94.2623 108.655C93.1317 111.987 95.8563 114.569 95.7013 119.489" fill="#843511"/>
<path d="M97.1875 132.668L111.714 164.318C111.714 164.318 111.965 164.923 112.368 164.756C112.771 164.589 112.521 163.984 112.521 163.984L100.413 131.332" fill="#FCBF49"/>
<path d="M97.1875 132.668L111.714 164.318C111.714 164.318 111.965 164.923 112.368 164.756C112.771 164.589 112.521 163.984 112.521 163.984L100.413 131.332" stroke="#843511" stroke-width="0.327273"/>
<path d="M97.9938 132.334L107.943 154.072L99.6064 131.666" fill="#843511"/>
<path d="M100.064 143.646C99.8878 148.458 102.847 151.106 102.46 155.404C102.073 159.703 104.435 162.133 104.982 163.805C105.53 165.476 104.39 166.476 104.881 166.714C105.372 166.952 106.449 165.631 106.098 163.254C105.747 160.878 103.943 160.173 104.367 154.923C104.791 149.672 102.22 148.45 102.845 143.661" fill="#FCBF49"/>
<path d="M100.064 143.646C99.8878 148.458 102.847 151.106 102.46 155.404C102.073 159.703 104.435 162.133 104.982 163.805C105.53 165.476 104.39 166.476 104.881 166.714C105.372 166.952 106.449 165.631 106.098 163.254C105.747 160.878 103.943 160.173 104.367 154.923C104.791 149.672 102.22 148.45 102.845 143.661" stroke="#843511" stroke-width="0.327273"/>
<path d="M101.001 144.464C101.232 149.086 103.853 151.133 103.338 155.345C104.468 152.013 101.744 149.431 101.899 144.511" fill="#843511"/>
<path d="M98.8 146.182C106.632 146.182 112.982 139.832 112.982 132C112.982 124.168 106.632 117.818 98.8 117.818C90.9676 117.818 84.6182 124.168 84.6182 132C84.6182 139.832 90.9676 146.182 98.8 146.182Z" fill="#FCBF49" stroke="#843511" stroke-width="0.218182"/>
<path d="M107.745 128.945C105.236 126.764 102.073 126.436 100.327 128.073C99.0605 129.767 99.1733 131.761 100.655 133.855C100.545 133.855 100.327 133.964 100.218 134.073C99.118 131.978 98.9288 129.82 99.6728 127.855C102.073 125.891 105.345 125.673 107.745 128.945Z" fill="#843511"/>
<path d="M103.818 128.291C102.4 128.291 102.073 128.618 101.418 129.164C100.764 129.709 100.436 129.6 100.327 129.709C100.218 129.818 100.327 130.145 100.545 130.036C100.764 129.927 101.2 129.709 101.855 129.164C102.509 128.618 103.164 128.618 103.818 128.618C105.782 128.618 106.873 130.255 107.091 130.145C107.309 130.036 106 128.291 103.818 128.291Z" fill="#843511"/>
<path d="M106.327 130.145C104.909 128.618 102.291 128.509 101.2 130.255H101.636C102.727 128.509 105.345 129.273 105.564 130.036V130.255" fill="#843511"/>
<path d="M103.6 131.018C104.142 131.018 104.582 130.579 104.582 130.036C104.582 129.494 104.142 129.055 103.6 129.055C103.058 129.055 102.618 129.494 102.618 130.036C102.618 130.579 103.058 131.018 103.6 131.018Z" fill="#843511"/>
<path d="M101.2 130.255C102.291 131.236 104.691 131.345 106.327 130.145L105.564 130.036C104.473 131.236 102.727 131.127 101.636 130.255V130.036" fill="#843511"/>
<path d="M106.436 130.691C104.582 132.109 102.727 132 101.636 131.345C100.546 130.691 100.546 130.473 100.764 130.473C100.982 130.473 101.2 130.691 102.073 131.127C102.946 131.564 104.255 131.564 106.436 130.691Z" fill="#843511"/>
<path d="M101.091 133.964C101.202 134.003 101.301 134.072 101.376 134.164C101.452 134.255 101.501 134.365 101.519 134.482C101.537 134.599 101.522 134.719 101.478 134.828C101.433 134.938 101.359 135.033 101.264 135.104C101.17 135.175 101.058 135.219 100.94 135.231C100.822 135.244 100.703 135.224 100.596 135.174C100.489 135.124 100.397 135.046 100.33 134.948C100.264 134.85 100.225 134.736 100.218 134.618C100.109 134.836 99.6728 135.491 98.8 135.491H98.5818L98.8 135.818C99.0182 135.818 99.6728 135.818 100.109 135.491C100.201 135.623 100.325 135.731 100.468 135.804C100.612 135.877 100.772 135.914 100.933 135.911C101.094 135.908 101.252 135.865 101.393 135.787C101.534 135.708 101.653 135.596 101.74 135.46C101.828 135.325 101.88 135.17 101.893 135.009C101.906 134.848 101.879 134.687 101.815 134.539C101.751 134.391 101.651 134.261 101.525 134.161C101.399 134.06 101.25 133.993 101.091 133.964Z" fill="#843511"/>
<path d="M102.4 138.545C101.418 137.891 100.982 136.909 99.8909 136.909C99.6728 136.909 99.2364 137.018 98.8 137.236H98.5818L98.8 137.564C99.2364 137.564 99.8909 137.018 100.655 137.455C101.418 137.891 101.855 138.327 102.4 138.545Z" fill="#843511"/>
<path d="M102.073 138.545C99.8909 137.891 99.4546 138.327 98.8 138.327H98.5818L98.8 138.764C99.6728 138.764 100.109 138.109 102.073 138.545Z" fill="#843511"/>
<path d="M102.4 138.545C100 138.327 100.764 139.745 98.8 139.745H98.5818L98.8 140.073C101.2 140.073 100.109 138.764 102.4 138.545Z" fill="#843511"/>
<path d="M100.764 142.036C100.764 141.516 100.557 141.016 100.189 140.648C99.8203 140.28 99.3209 140.073 98.8001 140.073C98.2793 140.073 97.7798 140.28 97.4116 140.648C97.0433 141.016 96.8364 141.516 96.8364 142.036C96.9413 141.594 97.1922 141.201 97.5486 140.919C97.9049 140.637 98.3458 140.484 98.8001 140.484C99.2543 140.484 99.6952 140.637 100.052 140.919C100.408 141.201 100.659 141.594 100.764 142.036Z" fill="#843511"/>
<path d="M89.8546 128.945C92.3637 126.764 95.5273 126.436 97.2728 128.073C98.5396 129.767 98.4267 131.761 96.9455 133.855C97.0546 133.855 97.2728 133.964 97.3819 134.073C98.482 131.978 98.6713 129.82 97.9273 127.855C95.5273 125.891 92.2546 125.673 89.8546 128.945Z" fill="#843511"/>
<path d="M93.7819 128.291C95.2001 128.291 95.5273 128.618 96.1819 129.164C96.8364 129.709 97.1637 129.6 97.2728 129.709C97.3819 129.818 97.2728 130.145 97.0546 130.036C96.8364 129.927 96.4001 129.709 95.7455 129.164C95.091 128.618 94.4364 128.618 93.7819 128.618C91.8182 128.618 90.7273 130.255 90.5091 130.145C90.291 130.036 91.6001 128.291 93.7819 128.291Z" fill="#843511"/>
<path d="M91.2728 130.145C92.691 128.618 95.3091 128.509 96.4001 130.255H95.9637C94.8728 128.509 92.2546 129.273 92.0364 130.036V130.255" fill="#843511"/>
<path d="M94 131.018C93.4578 131.018 93.0182 130.579 93.0182 130.036C93.0182 129.494 93.4578 129.055 94 129.055C94.5423 129.055 94.9818 129.494 94.9818 130.036C94.9818 130.579 94.5423 131.018 94 131.018Z" fill="#843511"/>
<path d="M96.4001 130.255C95.3091 131.236 92.9091 131.345 91.2728 130.145L92.0364 130.036C93.1273 131.236 94.8728 131.127 95.9637 130.255V130.036" fill="#843511"/>
<path d="M91.1637 130.691C93.0182 132.109 94.8728 132 95.9637 131.345C97.0546 130.691 97.0546 130.473 96.8364 130.473C96.6182 130.473 96.4 130.691 95.5273 131.127C94.6546 131.564 93.3455 131.564 91.1637 130.691Z" fill="#843511"/>
<path d="M96.5091 133.964C96.3976 134.003 96.299 134.072 96.2236 134.164C96.1483 134.255 96.0991 134.365 96.0813 134.482C96.0635 134.599 96.0778 134.719 96.1226 134.828C96.1673 134.938 96.241 135.033 96.3357 135.104C96.4304 135.175 96.5425 135.219 96.6602 135.231C96.7779 135.244 96.8967 135.224 97.0041 135.174C97.1114 135.124 97.2032 135.046 97.2698 134.948C97.3363 134.85 97.375 134.736 97.3819 134.618C97.4909 134.836 97.9273 135.491 98.8 135.491H99.0182L98.8 135.818C98.5819 135.818 97.9273 135.818 97.4909 135.491C97.3987 135.623 97.2753 135.731 97.1316 135.804C96.9879 135.877 96.8284 135.914 96.6671 135.911C96.5059 135.908 96.3478 135.865 96.207 135.787C96.0661 135.708 95.9468 135.596 95.8596 135.46C95.7724 135.325 95.7199 135.17 95.7069 135.009C95.6938 134.848 95.7206 134.687 95.7848 134.539C95.849 134.391 95.9487 134.261 96.075 134.161C96.2014 134.06 96.3505 133.993 96.5091 133.964Z" fill="#843511"/>
<path d="M95.2 138.545C96.1819 137.891 96.6182 136.909 97.7091 136.909C97.9273 136.909 98.3637 137.018 98.8 137.236H99.0182L98.8 137.564C98.3637 137.564 97.7091 137.018 96.9455 137.455C96.1819 137.891 95.7455 138.327 95.2 138.545Z" fill="#843511"/>
<path d="M95.5273 138.545C97.7091 137.891 98.1455 138.327 98.8 138.327H99.0182L98.8 138.764C97.9273 138.764 97.4909 138.109 95.5273 138.545Z" fill="#843511"/>
<path d="M95.2 138.545C97.6 138.327 96.8364 139.745 98.8 139.745H99.0182L98.8 140.073C96.4 140.073 97.4909 138.764 95.2 138.545Z" fill="#843511"/>
<path d="M96.8364 142.036C96.8364 141.516 97.0433 141.016 97.4115 140.648C97.7798 140.28 98.2792 140.073 98.8 140.073C99.3208 140.073 99.8203 140.28 100.189 140.648C100.557 141.016 100.764 141.516 100.764 142.036C100.659 141.594 100.408 141.201 100.052 140.919C99.6952 140.637 99.2543 140.484 98.8 140.484C98.3458 140.484 97.9049 140.637 97.5485 140.919C97.1922 141.201 96.9413 141.594 96.8364 142.036Z" fill="#843511"/>
</g>
<path d="M30.1169 75.0729C22.1981 75.0729 16.0164 72.9016 11.5716 68.559C7.1269 64.2165 4.90453 58.0603 4.90453 50.0904V20.3567H20.0779V49.6306C20.0779 54.2286 20.972 57.5238 22.7601 59.5163C24.5993 61.5088 27.1027 62.505 30.2702 62.505C33.4377 62.505 35.9155 61.5088 37.7036 59.5163C39.4917 57.5238 40.3858 54.2286 40.3858 49.6306V20.3567H55.3293V50.0904C55.3293 58.0603 53.1069 64.2165 48.6622 68.559C44.2174 72.9016 38.0357 75.0729 30.1169 75.0729ZM64.9186 74V32.4647H78.7892V44.5728L76.7201 41.1243C77.9463 38.0079 79.9387 35.6833 82.6975 34.1507C85.4563 32.5669 88.8027 31.775 92.7365 31.775V44.8793C92.0724 44.7772 91.4848 44.7261 90.9739 44.7261C90.5141 44.675 90.0033 44.6494 89.4413 44.6494C86.4781 44.6494 84.0769 45.4669 82.2377 47.1017C80.3985 48.6855 79.4789 51.291 79.4789 54.9183V74H64.9186ZM118.679 89.5566C114.694 89.5566 110.888 89.0968 107.26 88.1772C103.684 87.2576 100.619 85.9037 98.0643 84.1156L103.352 73.9234C105.089 75.3028 107.235 76.3756 109.789 77.142C112.395 77.9594 114.924 78.3681 117.376 78.3681C121.31 78.3681 124.145 77.4996 125.882 75.7626C127.619 74.0766 128.488 71.5988 128.488 68.3291V63.4246L129.254 51.7763L129.177 40.0514V32.4647H143.048V66.4133C143.048 74.281 140.928 80.1051 136.688 83.8857C132.447 87.6663 126.444 89.5566 118.679 89.5566ZM116.15 71.8543C112.471 71.8543 109.074 71.0368 105.958 69.402C102.892 67.7161 100.414 65.3915 98.5241 62.4284C96.6849 59.4141 95.7653 55.8634 95.7653 51.7763C95.7653 47.6892 96.6849 44.1641 98.5241 41.2009C100.414 38.1867 102.892 35.8621 105.958 34.2273C109.074 32.5925 112.471 31.775 116.15 31.775C119.675 31.775 122.689 32.4903 125.193 33.9208C127.696 35.3002 129.586 37.4714 130.863 40.4346C132.192 43.3978 132.856 47.1783 132.856 51.7763C132.856 56.3743 132.192 60.1549 130.863 63.1181C129.586 66.0812 127.696 68.278 125.193 69.7085C122.689 71.139 119.675 71.8543 116.15 71.8543ZM119.598 60.2826C121.335 60.2826 122.868 59.925 124.196 59.2098C125.576 58.4945 126.649 57.4983 127.415 56.2211C128.232 54.9438 128.641 53.4623 128.641 51.7763C128.641 50.0904 128.232 48.6088 127.415 47.3316C126.649 46.0544 125.576 45.0837 124.196 44.4195C122.868 43.7043 121.335 43.3467 119.598 43.3467C117.861 43.3467 116.303 43.7043 114.924 44.4195C113.544 45.0837 112.446 46.0544 111.628 47.3316C110.862 48.6088 110.479 50.0904 110.479 51.7763C110.479 53.4623 110.862 54.9438 111.628 56.2211C112.446 57.4983 113.544 58.4945 114.924 59.2098C116.303 59.925 117.861 60.2826 119.598 60.2826ZM174.167 74.6897C169.263 74.6897 164.971 73.7701 161.293 71.9309C157.665 70.0406 154.83 67.4862 152.786 64.2676C150.794 60.9979 149.798 57.2939 149.798 53.1557C149.798 49.0175 150.768 45.3391 152.71 42.1205C154.702 38.8508 157.436 36.3219 160.91 34.5338C164.384 32.6946 168.292 31.775 172.635 31.775C176.722 31.775 180.451 32.618 183.823 34.3039C187.195 35.9388 189.877 38.3655 191.87 41.5841C193.862 44.8027 194.858 48.711 194.858 53.309C194.858 53.8199 194.833 54.4074 194.782 55.0716C194.73 55.7357 194.679 56.3488 194.628 56.9108H161.753V49.2474H186.888L181.371 51.3932C181.422 49.5029 181.064 47.868 180.298 46.4886C179.583 45.1092 178.561 44.0364 177.233 43.27C175.955 42.5037 174.448 42.1205 172.711 42.1205C170.974 42.1205 169.441 42.5037 168.113 43.27C166.836 44.0364 165.84 45.1348 165.124 46.5653C164.409 47.9447 164.052 49.5795 164.052 51.4698V53.6922C164.052 55.7357 164.46 57.4983 165.278 58.9799C166.146 60.4614 167.372 61.6109 168.956 62.4284C170.54 63.1947 172.43 63.5779 174.627 63.5779C176.671 63.5779 178.408 63.2969 179.838 62.7349C181.32 62.1218 182.776 61.2022 184.206 59.9761L191.87 67.946C189.877 70.1428 187.425 71.8287 184.513 73.0038C181.601 74.1277 178.152 74.6897 174.167 74.6897ZM228.623 31.775C231.842 31.775 234.754 32.4392 237.359 33.7675C239.965 35.0447 242.008 37.0372 243.49 39.7449C245.023 42.4526 245.789 45.9522 245.789 50.2437V74H231.229V52.6193C231.229 49.6561 230.615 47.5104 229.389 46.1821C228.214 44.8027 226.554 44.113 224.408 44.113C222.875 44.113 221.471 44.4706 220.193 45.1859C218.916 45.85 217.92 46.8973 217.205 48.3278C216.489 49.7583 216.132 51.6231 216.132 53.9221V74H201.571V32.4647H215.442V44.2663L212.76 40.8178C214.344 37.8035 216.515 35.5556 219.274 34.074C222.033 32.5414 225.149 31.775 228.623 31.775ZM273.476 74.6897C268.162 74.6897 264.024 73.3869 261.061 70.7814C258.098 68.1248 256.616 64.1398 256.616 58.8266V23.1921H271.177V58.6733C271.177 60.1549 271.585 61.33 272.403 62.1985C273.22 63.0159 274.267 63.4246 275.545 63.4246C277.282 63.4246 278.763 62.9903 279.989 62.1218L283.591 72.3141C282.365 73.1315 280.858 73.719 279.07 74.0766C277.282 74.4853 275.417 74.6897 273.476 74.6897ZM250.562 44.8793V33.9974H280.679V44.8793H250.562ZM309.772 74.6897C304.868 74.6897 300.576 73.7701 296.898 71.9309C293.271 70.0406 290.435 67.4862 288.392 64.2676C286.399 60.9979 285.403 57.2939 285.403 53.1557C285.403 49.0175 286.374 45.3391 288.315 42.1205C290.307 38.8508 293.041 36.3219 296.515 34.5338C299.989 32.6946 303.897 31.775 308.24 31.775C312.327 31.775 316.056 32.618 319.428 34.3039C322.8 35.9388 325.482 38.3655 327.475 41.5841C329.467 44.8027 330.463 48.711 330.463 53.309C330.463 53.8199 330.438 54.4074 330.387 55.0716C330.336 55.7357 330.284 56.3488 330.233 56.9108H297.358V49.2474H322.493L316.976 51.3932C317.027 49.5029 316.669 47.868 315.903 46.4886C315.188 45.1092 314.166 44.0364 312.838 43.27C311.56 42.5037 310.053 42.1205 308.316 42.1205C306.579 42.1205 305.047 42.5037 303.718 43.27C302.441 44.0364 301.445 45.1348 300.73 46.5653C300.014 47.9447 299.657 49.5795 299.657 51.4698V53.6922C299.657 55.7357 300.065 57.4983 300.883 58.9799C301.751 60.4614 302.977 61.6109 304.561 62.4284C306.145 63.1947 308.035 63.5779 310.232 63.5779C312.276 63.5779 314.013 63.2969 315.443 62.7349C316.925 62.1218 318.381 61.2022 319.811 59.9761L327.475 67.946C325.482 70.1428 323.03 71.8287 320.118 73.0038C317.206 74.1277 313.757 74.6897 309.772 74.6897ZM352.273 74.6897C348.748 74.6897 345.3 74.281 341.928 73.4636C338.607 72.6461 335.925 71.6244 333.881 70.3982L338.249 60.4359C340.191 61.6109 342.464 62.5561 345.07 63.2713C347.675 63.9355 350.23 64.2676 352.733 64.2676C355.185 64.2676 356.871 64.0121 357.791 63.5012C358.762 62.9903 359.247 62.3006 359.247 61.4321C359.247 60.6147 358.787 60.0272 357.867 59.6696C356.999 59.2609 355.824 58.9543 354.342 58.75C352.912 58.5456 351.328 58.3157 349.591 58.0603C347.854 57.8048 346.091 57.4727 344.303 57.064C342.566 56.6042 340.957 55.9401 339.475 55.0716C338.045 54.152 336.895 52.9258 336.027 51.3932C335.158 49.8605 334.724 47.9191 334.724 45.569C334.724 42.9124 335.491 40.5623 337.023 38.5188C338.607 36.4241 340.906 34.7893 343.92 33.6142C346.934 32.3881 350.613 31.775 354.955 31.775C357.867 31.775 360.805 32.0816 363.768 32.6946C366.782 33.2566 369.311 34.1251 371.355 35.3002L366.987 45.1859C364.943 44.0108 362.9 43.2189 360.856 42.8102C358.813 42.3504 356.871 42.1205 355.032 42.1205C352.58 42.1205 350.843 42.4015 349.821 42.9635C348.85 43.5255 348.365 44.2152 348.365 45.0326C348.365 45.85 348.799 46.4886 349.668 46.9484C350.536 47.3571 351.686 47.6892 353.116 47.9447C354.598 48.149 356.207 48.3789 357.944 48.6344C359.681 48.8387 361.418 49.1708 363.155 49.6306C364.943 50.0904 366.553 50.7801 367.983 51.6997C369.465 52.5682 370.64 53.7688 371.508 55.3015C372.377 56.783 372.811 58.6989 372.811 61.049C372.811 63.6034 372.019 65.9024 370.435 67.946C368.903 69.9895 366.604 71.6244 363.538 72.8505C360.524 74.0766 356.769 74.6897 352.273 74.6897Z" fill="#C51E1E"/>
<path d="M154.887 157.386L179.442 101.76H194.938L219.572 157.386H203.203L183.972 109.468H190.17L170.94 157.386H154.887ZM168.317 146.579L172.37 134.977H199.547L203.6 146.579H168.317ZM223.318 157.386V114.316H237.701V126.871L235.556 123.295C236.827 120.064 238.893 117.653 241.754 116.064C244.615 114.422 248.085 113.601 252.164 113.601V127.189C251.475 127.083 250.866 127.03 250.336 127.03C249.859 126.977 249.33 126.951 248.747 126.951C245.674 126.951 243.184 127.798 241.277 129.494C239.37 131.136 238.416 133.838 238.416 137.599V157.386H223.318ZM279.065 173.518C274.933 173.518 270.986 173.041 267.224 172.087C263.516 171.134 260.337 169.73 257.689 167.876L263.172 157.307C264.973 158.737 267.198 159.85 269.847 160.644C272.549 161.492 275.171 161.916 277.714 161.916C281.793 161.916 284.733 161.015 286.535 159.214C288.336 157.466 289.236 154.896 289.236 151.506V146.42L290.031 134.341L289.952 122.183V114.316H304.335V149.519C304.335 157.677 302.136 163.717 297.739 167.637C293.342 171.557 287.117 173.518 279.065 173.518ZM276.442 155.161C272.628 155.161 269.105 154.313 265.873 152.618C262.695 150.87 260.125 148.459 258.165 145.387C256.258 142.261 255.305 138.579 255.305 134.341C255.305 130.103 256.258 126.448 258.165 123.375C260.125 120.249 262.695 117.839 265.873 116.144C269.105 114.448 272.628 113.601 276.442 113.601C280.098 113.601 283.223 114.342 285.819 115.826C288.415 117.256 290.375 119.508 291.7 122.58C293.077 125.653 293.766 129.573 293.766 134.341C293.766 139.109 293.077 143.029 291.7 146.102C290.375 149.175 288.415 151.453 285.819 152.936C283.223 154.419 280.098 155.161 276.442 155.161ZM280.018 143.162C281.82 143.162 283.409 142.791 284.786 142.049C286.217 141.308 287.329 140.275 288.124 138.95C288.971 137.626 289.395 136.089 289.395 134.341C289.395 132.593 288.971 131.057 288.124 129.732C287.329 128.408 286.217 127.401 284.786 126.712C283.409 125.971 281.82 125.6 280.018 125.6C278.217 125.6 276.601 125.971 275.171 126.712C273.741 127.401 272.602 128.408 271.754 129.732C270.959 131.057 270.562 132.593 270.562 134.341C270.562 136.089 270.959 137.626 271.754 138.95C272.602 140.275 273.741 141.308 275.171 142.049C276.601 142.791 278.217 143.162 280.018 143.162ZM336.604 158.101C331.518 158.101 327.068 157.148 323.254 155.241C319.492 153.28 316.552 150.632 314.433 147.294C312.367 143.903 311.334 140.063 311.334 135.771C311.334 131.48 312.341 127.666 314.354 124.328C316.42 120.938 319.254 118.316 322.856 116.461C326.459 114.554 330.512 113.601 335.015 113.601C339.253 113.601 343.12 114.475 346.617 116.223C350.113 117.918 352.894 120.435 354.961 123.772C357.027 127.11 358.06 131.162 358.06 135.93C358.06 136.46 358.033 137.069 357.98 137.758C357.927 138.447 357.874 139.083 357.821 139.665H323.731V131.719H349.795L344.074 133.944C344.127 131.984 343.756 130.288 342.961 128.858C342.22 127.428 341.16 126.315 339.783 125.52C338.458 124.726 336.895 124.328 335.094 124.328C333.293 124.328 331.704 124.726 330.326 125.52C329.002 126.315 327.969 127.454 327.227 128.937C326.485 130.368 326.115 132.063 326.115 134.023V136.328C326.115 138.447 326.538 140.275 327.386 141.811C328.287 143.347 329.558 144.539 331.2 145.387C332.843 146.181 334.803 146.579 337.081 146.579C339.2 146.579 341.001 146.287 342.484 145.705C344.021 145.069 345.531 144.115 347.014 142.844L354.961 151.108C352.894 153.386 350.352 155.135 347.332 156.353C344.312 157.519 340.736 158.101 336.604 158.101ZM393.072 113.601C396.41 113.601 399.43 114.289 402.131 115.667C404.833 116.991 406.952 119.057 408.489 121.865C410.078 124.673 410.873 128.302 410.873 132.752V157.386H395.774V135.215C395.774 132.143 395.138 129.918 393.867 128.54C392.648 127.11 390.927 126.395 388.702 126.395C387.112 126.395 385.656 126.765 384.331 127.507C383.007 128.196 381.974 129.282 381.232 130.765C380.49 132.249 380.119 134.182 380.119 136.566V157.386H365.021V114.316H379.404V126.553L376.623 122.978C378.265 119.852 380.517 117.521 383.378 115.985C386.238 114.395 389.47 113.601 393.072 113.601ZM439.583 158.101C434.073 158.101 429.782 156.75 426.709 154.049C423.637 151.294 422.1 147.162 422.1 141.652V104.7H437.199V141.493C437.199 143.029 437.622 144.248 438.47 145.148C439.318 145.996 440.404 146.42 441.728 146.42C443.529 146.42 445.066 145.97 446.337 145.069L450.072 155.638C448.801 156.486 447.238 157.095 445.384 157.466C443.529 157.889 441.596 158.101 439.583 158.101ZM415.822 127.189V115.905H447.052V127.189H415.822ZM455.894 157.386V114.316H470.993V157.386H455.894ZM463.443 109.548C460.689 109.548 458.464 108.78 456.768 107.243C455.073 105.707 454.225 103.8 454.225 101.522C454.225 99.2439 455.073 97.3367 456.768 95.8003C458.464 94.264 460.689 93.4958 463.443 93.4958C466.198 93.4958 468.423 94.2375 470.118 95.7209C471.814 97.1513 472.661 99.0055 472.661 101.283C472.661 103.667 471.814 105.654 470.118 107.243C468.476 108.78 466.251 109.548 463.443 109.548ZM508.856 113.601C512.194 113.601 515.213 114.289 517.915 115.667C520.617 116.991 522.736 119.057 524.272 121.865C525.862 124.673 526.656 128.302 526.656 132.752V157.386H511.558V135.215C511.558 132.143 510.922 129.918 509.651 128.54C508.432 127.11 506.71 126.395 504.485 126.395C502.896 126.395 501.439 126.765 500.115 127.507C498.79 128.196 497.757 129.282 497.016 130.765C496.274 132.249 495.903 134.182 495.903 136.566V157.386H480.805V114.316H495.188V126.553L492.407 122.978C494.049 119.852 496.3 117.521 499.161 115.985C502.022 114.395 505.254 113.601 508.856 113.601ZM562.439 157.386V149.36L561.406 147.373V132.593C561.406 130.209 560.664 128.381 559.181 127.11C557.75 125.785 555.446 125.123 552.267 125.123C550.201 125.123 548.108 125.467 545.989 126.156C543.87 126.792 542.069 127.693 540.586 128.858L535.5 118.607C537.937 117.018 540.851 115.799 544.241 114.952C547.685 114.051 551.102 113.601 554.492 113.601C561.485 113.601 566.889 115.216 570.703 118.448C574.57 121.627 576.504 126.633 576.504 133.467V157.386H562.439ZM549.724 158.101C546.281 158.101 543.367 157.519 540.983 156.353C538.599 155.188 536.771 153.598 535.5 151.585C534.281 149.572 533.672 147.32 533.672 144.831C533.672 142.182 534.334 139.904 535.659 137.997C537.036 136.036 539.129 134.553 541.937 133.546C544.744 132.487 548.373 131.957 552.823 131.957H562.995V139.824H554.89C552.453 139.824 550.731 140.222 549.724 141.016C548.771 141.811 548.294 142.87 548.294 144.195C548.294 145.519 548.797 146.579 549.804 147.373C550.81 148.168 552.188 148.565 553.936 148.565C555.578 148.565 557.062 148.168 558.386 147.373C559.763 146.526 560.77 145.254 561.406 143.559L563.472 149.122C562.677 152.088 561.114 154.34 558.783 155.876C556.505 157.36 553.486 158.101 549.724 158.101Z" fill="#28A9B8"/>
<defs>
<clipPath id="clip0_99_144">
<rect width="72" height="72" fill="white" transform="translate(62.8 96)"/>
</clipPath>
</defs>
</svg>
